<svg xmlns="http://www.w3.org/2000/svg" width="38" height="33" viewBox="0 0 38 33"><path d="M11.05 18.98a.82.82 0 0 0 1.16 0l7.89-7.91a.82.82 0 0 0 0-1.16.8.8 0 0 0-1.16 0l-7.9 7.91a.82.82 0 0 0 0 1.16zm7.38-3.11a.82.82 0 0 0 1.16 0l6.44-6.45a.82.82 0 0 0-1.17-1.16l-6.43 6.45a.82.82 0 0 0 0 1.16zM34.81 0H3.2A3.2 3.2 0 0 0 0 3.2v21.12a3.2 3.2 0 0 0 3.19 3.19h9.65l-.13.42a3.11 3.11 0 0 1-.76 1.24 1.52 1.52 0 0 1-1.11.39 1.3 1.3 0 0 0-1.3 1.3v.83a1.3 1.3 0 0 0 1.3 1.3h16.3a1.3 1.3 0 0 0 1.3-1.3v-.83a1.3 1.3 0 0 0-1.3-1.3 1.53 1.53 0 0 1-1.12-.39 3.65 3.65 0 0 1-.88-1.66h9.67a3.2 3.2 0 0 0 3.18-3.19V3.2A3.2 3.2 0 0 0 34.81 0zM3.2 1.76H34.8a1.43 1.43 0 0 1 1.43 1.44v1.74H1.76V3.2a1.43 1.43 0 0 1 1.43-1.44zm33.05 4.59v15.52H1.76V6.35h34.48zM25.5 30.89H12.74a3.2 3.2 0 0 0 1.6-1.88 11.57 11.57 0 0 0 .44-1.5h8.52c.23 1.02 1.16 2.91 2.2 3.38zm9.32-5.14H3.2a1.43 1.43 0 0 1-1.43-1.43v-1.04h34.48v1.04a1.43 1.43 0 0 1-1.43 1.43z" fill="#ccc" fill-rule="evenodd"/></svg>