<svg xmlns="http://www.w3.org/2000/svg" viewBox="0 0 60 60"><path fill="#ccc" d="M41 26h-2c-4.4 0-8 3.5-8 7.9v10.3c0 4.3 3.6 7.9 8 7.9h2c4.4 0 8-3.5 8-7.9V33.8c0-4.3-3.6-7.8-8-7.8zm0 1.5c3.5 0 6.4 2.8 6.4 6.3v6.6h-6.8v-2.8c1.2-.3 2.1-1.3 2.1-2.6v-2.7c0-1.3-.9-2.3-2.1-2.6v-2.2h.4zm-1 3.3c.8 0 1.5.7 1.5 1.5V35c0 .8-.7 1.5-1.5 1.5s-1.5-.7-1.5-1.5v-2.7c0-.8.7-1.5 1.5-1.5zm-1-3.3h.4v2.2c-1.2.3-2.1 1.3-2.1 2.6V35c0 1.3.9 2.3 2.1 2.6v2.8h-6.8v-6.6c0-3.4 2.9-6.3 6.4-6.3zm2 22.9h-2c-3.5 0-6.4-2.8-6.4-6.3v-2.5h14.8v2.5c0 3.5-2.9 6.3-6.4 6.3z"/><path fill="#ccc" d="M40 36.1c.4 0 .8-.4.8-.8v-3.1c0-.4-.4-.8-.8-.8s-.8.4-.8.8v3.1c0 .4.4.8.8.8z"/><path fill="#ccc" d="M50.6 46h-1.8c-.6 0-1-.4-1-1s.4-1 1-1h1.8c1.3 0 2.4-1.1 2.4-2.4V14.4c0-1.3-1.1-2.4-2.4-2.4H9.4C8.1 12 7 13.1 7 14.4v27.3C7 42.9 8.1 44 9.4 44h22.1c.6 0 1 .4 1 1s-.4 1-1 1H9.4C7 46 5 44 5 41.6V14.4C5 12 7 10 9.4 10h41.3c2.4 0 4.4 2 4.4 4.4v27.3C55 44 53 46 50.6 46z"/><path fill="#ccc" d="M11 19.6c-.2 0-.3-.1-.4-.2-.2-.2-.2-.6 0-.9l3-3c.2-.2.6-.2.9 0 .2.2.2.6 0 .9l-3 3c-.2.2-.3.2-.5.2zM10.5 25.1c-.2 0-.3-.1-.4-.2-.2-.2-.2-.6 0-.9l8.5-8.5c.2-.2.6-.2.9 0 .2.2.2.6 0 .9L11 24.9c-.2.2-.3.2-.5.2z"/><g><path fill="#ccc" d="M11 29.6c-.2 0-.3-.1-.4-.2-.2-.2-.2-.6 0-.9l13-13c.2-.2.6-.2.9 0 .2.2.2.6 0 .9l-13 13c-.2.2-.3.2-.5.2z"/></g></svg>