<svg xmlns="http://www.w3.org/2000/svg" width="46" height="35" viewBox="0 0 46 35"><path d="M41 11.09H24.1V9.76v-.07c0-.14-.2-3.41 1.97-3.68A4.67 4.67 0 0 0 30.52.94a.94.94 0 0 0-.94-.94.94.94 0 0 0-.94.95 2.78 2.78 0 0 1-2.8 3.17c-3.14.4-3.74 3.87-3.61 5.68v1.29H5A5.02 5.02 0 0 0 0 16.12v13.84a5.02 5.02 0 0 0 5 5.03h36a5.02 5.02 0 0 0 5-5.03V16.12a5.02 5.02 0 0 0-5-5.03zm3.41 18.87A3.43 3.43 0 0 1 41 33.4H5.01a3.43 3.43 0 0 1-3.42-3.44V16.12A3.43 3.43 0 0 1 5 12.68h35.98a3.43 3.43 0 0 1 3.42 3.44v13.84zM8.78 16.54H8.1a.96.96 0 0 0-.96.96v.69a.96.96 0 0 0 .96.96h.68a.96.96 0 0 0 .96-.96v-.69a.96.96 0 0 0-.96-.96zm5.27 2.61h.68a.96.96 0 0 0 .96-.96v-.69a.96.96 0 0 0-.96-.96h-.68a.96.96 0 0 0-.96.96v.69a.96.96 0 0 0 .96.96zm5.95 0h.68a.96.96 0 0 0 .96-.96v-.69a.96.96 0 0 0-.96-.96H20a.96.96 0 0 0-.96.96v.69a.96.96 0 0 0 .96.96zm5.95 0h.69a.96.96 0 0 0 .95-.96v-.69a.96.96 0 0 0-.95-.96h-.69a.96.96 0 0 0-.96.96v.69a.96.96 0 0 0 .96.96zm6.64-2.61h-.69a.96.96 0 0 0-.96.96v.69a.96.96 0 0 0 .96.96h.68a.96.96 0 0 0 .96-.96v-.69a.96.96 0 0 0-.95-.96zm5.95 0h-.68a.96.96 0 0 0-.96.96v.69a.96.96 0 0 0 .96.96h.68a.96.96 0 0 0 .96-.96v-.69a.96.96 0 0 0-.96-.96zM8.78 21.56H8.1a.96.96 0 0 0-.96.96v.69a.96.96 0 0 0 .96.96h.68a.96.96 0 0 0 .96-.96v-.69a.96.96 0 0 0-.96-.96zm5.27 2.61h.68a.96.96 0 0 0 .96-.96v-.69a.96.96 0 0 0-.96-.96h-.68a.96.96 0 0 0-.96.96v.69a.96.96 0 0 0 .96.96zm5.95 0h.68a.96.96 0 0 0 .96-.96v-.69a.96.96 0 0 0-.96-.96H20a.96.96 0 0 0-.96.96v.69a.96.96 0 0 0 .96.96zm5.95 0h.69a.96.96 0 0 0 .95-.96v-.69a.96.96 0 0 0-.95-.96h-.69a.96.96 0 0 0-.96.96v.69a.96.96 0 0 0 .96.96zm6.64-2.61h-.69a.96.96 0 0 0-.96.96v.69a.96.96 0 0 0 .96.96h.68a.96.96 0 0 0 .96-.96v-.69a.96.96 0 0 0-.95-.96zm5.95 0h-.68a.96.96 0 0 0-.96.96v.69a.96.96 0 0 0 .96.96h.68a.96.96 0 0 0 .96-.96v-.69a.96.96 0 0 0-.96-.96zM8.78 26.58H8.1a.96.96 0 0 0-.96.97v.68a.97.97 0 0 0 .96.97h.68a.97.97 0 0 0 .96-.97v-.68a.96.96 0 0 0-.96-.97zm23.8 0H13.66a.96.96 0 0 0-.96.97v.68a.97.97 0 0 0 .96.97h18.94a.97.97 0 0 0 .96-.97v-.68a.96.96 0 0 0-.96-.97zm5.96 0h-.68a.96.96 0 0 0-.96.97v.68a.97.97 0 0 0 .96.97h.68a.97.97 0 0 0 .96-.97v-.68a.96.96 0 0 0-.96-.97z" fill="#ccc" fill-rule="evenodd"/></svg>