<svg xmlns="http://www.w3.org/2000/svg" width="22" height="41" viewBox="0 0 22 41"><path d="M12.24 8.64h-.51V7.58v-.06c-.01-.1-.17-2.64 1.52-2.86A3.62 3.62 0 0 0 16.71.74a.74.74 0 0 0-.74-.74.73.73 0 0 0-.73.74 2.17 2.17 0 0 1-2.17 2.46c-2.44.31-2.9 3-2.81 4.4v1.04h-.5A9.79 9.79 0 0 0 0 18.43v12.78A9.79 9.79 0 0 0 9.76 41h2.48A9.78 9.78 0 0 0 22 31.21V18.43a9.78 9.78 0 0 0-9.76-9.79zm0 1.97a7.82 7.82 0 0 1 7.8 7.82v8.23H11.7v-3.51a3.32 3.32 0 0 0 2.62-3.24v-3.36a3.33 3.33 0 0 0-2.58-3.24v-2.7h.51zM11 14.7a1.85 1.85 0 0 1 1.84 1.85v3.36a1.84 1.84 0 1 1-3.68 0v-3.36A1.85 1.85 0 0 1 11 14.7zm-1.24-4.09h.5v2.71a3.31 3.31 0 0 0-2.56 3.23v3.36a3.32 3.32 0 0 0 2.52 3.22v3.53H1.96v-8.23a7.82 7.82 0 0 1 7.8-7.82zm2.48 28.42H9.76a7.82 7.82 0 0 1-7.8-7.82v-3.07h18.08v3.07a7.82 7.82 0 0 1-7.8 7.82zM11 21.22a.98.98 0 0 0 .98-.99v-3.89a.98.98 0 0 0-1.96 0v3.89a.98.98 0 0 0 .98.99z" fill="#ccc" fill-rule="evenodd"/></svg>