<svg xmlns="http://www.w3.org/2000/svg" width="40" height="30" viewBox="0 0 40 30"><path d="M33.59 16.35h-11.1a.79.79 0 1 0 0 1.58h11.1a.79.79 0 1 0 0-1.58zm0 3.17h-11.1a.79.79 0 1 0 0 1.58h11.1a.79.79 0 1 0 0-1.58zm0-9.52h-11.1a.8.8 0 0 0 0 1.59h11.1a.8.8 0 0 0 0-1.59zm0 3.17h-11.1a.8.8 0 0 0 0 1.59h11.1a.8.8 0 0 0 0-1.59zM19.3 14.76a.8.8 0 0 0 0-1.59h-.8v-.79a.79.79 0 0 0-.78-.79h-.8v-.8a.8.8 0 0 0-1.58 0v.8h-1.6v-.8a.8.8 0 0 0-1.58 0v.8h-.79a.79.79 0 0 0-.8.79v.79H9.8a.8.8 0 0 0 0 1.59h.8v1.59h-.8a.79.79 0 1 0 0 1.58h.8v.79a.8.8 0 0 0 .79.8h.8v.79a.8.8 0 0 0 1.58 0v-.79h1.59v.79a.8.8 0 0 0 1.58 0v-.79h.8a.8.8 0 0 0 .79-.8v-.79h.8a.79.79 0 1 0 0-1.58h-.8v-1.59h.8zm-2.38 3.17h-4.76v-4.76h4.76v4.76zM38 8v16H6V8h32m.44-2H5.56A1.56 1.56 0 0 0 4 7.56v16.88A1.56 1.56 0 0 0 5.56 26h32.88A1.56 1.56 0 0 0 40 24.44V7.56A1.56 1.56 0 0 0 38.44 6zM23 26v2H11v-2h12m.6-2H10.4A1.4 1.4 0 0 0 9 25.41v3.18A1.4 1.4 0 0 0 10.4 30h13.2a1.4 1.4 0 0 0 1.4-1.41v-3.18A1.4 1.4 0 0 0 23.6 24zM35 26v2h-6v-2h6m.6-2h-7.2a1.4 1.4 0 0 0-1.4 1.41v3.18A1.4 1.4 0 0 0 28.4 30h7.2a1.4 1.4 0 0 0 1.4-1.41v-3.18A1.4 1.4 0 0 0 35.6 24zM4 10v4H2v-4h2m.6-2H1.4A1.4 1.4 0 0 0 0 9.41v5.18A1.4 1.4 0 0 0 1.4 16h3.2A1.4 1.4 0 0 0 6 14.59V9.41A1.4 1.4 0 0 0 4.6 8zM4 19v4H2v-4h2m.6-2H1.4A1.4 1.4 0 0 0 0 18.41v5.18A1.4 1.4 0 0 0 1.4 25h3.2A1.4 1.4 0 0 0 6 23.59v-5.18A1.4 1.4 0 0 0 4.6 17zM4 30h2V0H4v30zM5 2H1V0h4v2z" fill="#ccc" fill-rule="evenodd"/></svg>