<svg xmlns="http://www.w3.org/2000/svg" viewBox="0 0 60 60"><path fill="#ccc" d="M30 10.038c-8.8 0-16 7.2-16 16v12.2c0 4.3 3 7.8 7 8.7.3 1.3 1.4 2.3 2.8 2.3h.4c1.6 0 2.9-1.3 2.9-2.9v-16.1c0-1.6-1.3-2.9-2.9-2.9h-.4c-1.4 0-2.5 1-2.8 2.3-2.1.5-3.9 1.6-5.1 3.3v-6.8c0-7.8 6.4-14.2 14.2-14.2 7.8 0 14.2 6.4 14.2 14.2v6.5c-1.3-1.6-3.1-2.8-5.2-3.3-.3-1.3-1.5-2.3-2.8-2.3h-.4c-1.6 0-2.9 1.3-2.9 2.9v16.1c0 1.6 1.3 2.9 2.9 2.9h.4c1.4 0 2.5-1 2.8-2.3 3.8-.8 6.7-4 7-8 .1-4.5 0-8.1 0-12.6-.1-8.8-7.3-16-16.1-16zm5.8 18.8h.4c.6 0 1.1.5 1.1 1.1v16.1c0 .6-.5 1.1-1.1 1.1h-.4c-.6 0-1.1-.5-1.1-1.1v-16.1c0-.6.5-1.1 1.1-1.1zm-12 .2h.4c.6 0 1.1.5 1.1 1.1v16.1c0 .6-.5 1.1-1.1 1.1h-.4c-.6 0-1.1-.5-1.1-1.1v-15.9-.1c0-.7.5-1.2 1.1-1.2zm15.3 2.1c2.9.8 5.1 3.5 5.1 6.8 0 3.2-2.1 5.9-5.1 6.8v-13.6zm-18.2.3v13.6c-2.8-.8-4.9-3.4-5.1-6.4v-1c.3-3 2.4-5.5 5.1-6.2z"/></svg>