<svg width="63" height="62" fill="none" xmlns="http://www.w3.org/2000/svg"><path fill-rule="evenodd" clip-rule="evenodd" d="M21.32 12.791c-.947-.206-2.133-.283-3.786-.057-2.993.41-5.06 2.221-6.52 4.438-1.473 2.238-2.23 4.753-2.581 6.196-.722 2.965-2.71 14.3-3.203 18.634-.254 2.233-.303 4.105.22 5.388.234.575.571.993 1.068 1.29.519.312 1.347.57 2.682.57 1.006 0 1.863-.388 2.92-1.22.542-.425 1.095-.933 1.738-1.534l.195-.182a55.585 55.585 0 011.922-1.742c3.244-2.772 7.78-5.517 16.016-5.517v3.5c-7.265 0-11.02 2.352-13.743 4.678a54.517 54.517 0 00-1.806 1.638l-.194.181c-.635.594-1.29 1.2-1.966 1.731-1.375 1.08-2.982 1.967-5.082 1.967-1.77 0-3.27-.341-4.481-1.067-1.235-.74-2.03-1.796-2.51-2.971-.904-2.216-.703-4.942-.457-7.105.507-4.459 2.519-15.94 3.28-19.067.39-1.602 1.264-4.565 3.06-7.293 1.81-2.748 4.655-5.39 8.968-5.98 2-.275 3.603-.2 5.003.104 1.389.302 2.497.814 3.47 1.294l.4.198c1.711.852 3.224 1.605 6.058 1.605v3.5c-3.668 0-5.805-1.066-7.6-1.963a94.316 94.316 0 00-.406-.201c-.913-.45-1.709-.805-2.665-1.013z" fill="#000"/><path fill-rule="evenodd" clip-rule="evenodd" d="M41.965 12.791c.947-.206 2.133-.283 3.786-.057 2.994.41 5.06 2.221 6.52 4.438 1.473 2.238 2.23 4.753 2.581 6.196.722 2.965 2.71 14.3 3.203 18.634.254 2.233.303 4.105-.22 5.388-.234.575-.571.993-1.068 1.29-.519.312-1.347.57-2.682.57-1.006 0-1.862-.388-2.92-1.22-.542-.425-1.095-.933-1.738-1.534l-.195-.182a55.585 55.585 0 00-1.922-1.742c-3.244-2.772-7.78-5.517-16.016-5.517v3.5c7.265 0 11.02 2.352 13.743 4.678a52.815 52.815 0 011.806 1.638l.194.181c.635.594 1.29 1.2 1.966 1.731 1.375 1.08 2.982 1.967 5.082 1.967 1.77 0 3.27-.341 4.481-1.067 1.235-.74 2.03-1.796 2.51-2.971.904-2.216.703-4.942.457-7.105-.507-4.459-2.519-15.94-3.28-19.067-.39-1.602-1.264-4.565-3.06-7.293-1.81-2.748-4.655-5.39-8.968-5.98-2-.275-3.603-.2-5.003.104-1.389.302-2.497.814-3.47 1.294l-.4.198c-1.711.852-3.224 1.605-6.058 1.605v3.5c3.668 0 5.805-1.066 7.6-1.963l.406-.201c.913-.45 1.709-.805 2.666-1.013z" fill="#000"/><path d="M26.42 23.253h-2.124v-2.124c0-1.173-.95-2.124-2.123-2.124h-4.248a2.124 2.124 0 00-2.124 2.124v2.124h-2.123a2.124 2.124 0 00-2.124 2.124v4.247c0 1.173.95 2.124 2.123 2.124h2.124v2.124c0 1.173.951 2.124 2.124 2.124h4.248a2.123 2.123 0 002.123-2.124v-2.124h2.124c1.173 0 2.124-.95 2.124-2.124v-4.247a2.124 2.124 0 00-2.124-2.124zm-.708 5.663H23.59a2.124 2.124 0 00-2.124 2.124v2.124h-2.832V31.04c0-1.173-.95-2.124-2.124-2.124h-2.124v-2.831h2.124a2.124 2.124 0 002.124-2.124v-2.124h2.832v2.124c0 1.173.95 2.124 2.123 2.124h2.124v2.831zm17.828-4.579a2.666 2.666 0 100-5.332 2.666 2.666 0 000 5.332zm0 10.663a2.666 2.666 0 100-5.331 2.666 2.666 0 000 5.33zm-5.331-5.332a2.666 2.666 0 100-5.331 2.666 2.666 0 000 5.331zm10.661 0a2.666 2.666 0 100-5.331 2.666 2.666 0 000 5.331z" fill="#000"/></svg>