<svg width="62" height="62" fill="none" xmlns="http://www.w3.org/2000/svg"><path d="M41.79 12.773v-1.607a4.832 4.832 0 00-4.831-4.822H25.041a4.832 4.832 0 00-4.83 4.822v1.607H8.818A4.819 4.819 0 004 17.594v32.143a4.832 4.832 0 004.83 4.822h44.34A4.832 4.832 0 0058 49.736V17.513a4.821 4.821 0 00-4.864-4.823c-4.17.037-9.752.083-11.346.083zm-18.36-1.607a1.61 1.61 0 011.611-1.607h11.918c.888 0 1.61.72 1.61 1.607v1.607H23.431v-1.607zm29.387 4.821a.964.964 0 01.914 1.27l-4.576 13.702a1.607 1.607 0 01-1.528 1.1H38.57V30.45c0-.887-.72-1.607-1.61-1.607H25.041c-.89 0-1.61.72-1.61 1.607v1.608h-9.059a1.607 1.607 0 01-1.527-1.1L8.27 17.258a.964.964 0 01.914-1.27h43.634zM35.349 32.06v3.214H26.65v-3.215h8.698zm19.43 17.678a1.61 1.61 0 01-1.61 1.607H8.831a1.61 1.61 0 01-1.61-1.607V24.284l2.569 7.692a4.823 4.823 0 004.583 3.297h9.058v1.607c0 .888.72 1.607 1.61 1.607h11.918c.89 0 1.61-.72 1.61-1.607v-1.607h9.058a4.823 4.823 0 004.583-3.297l2.57-7.692v25.453z" fill="#000"/></svg>