<svg width="148" height="27" viewBox="0 0 148 27" fill="none" xmlns="http://www.w3.org/2000/svg">
<path d="M0.386756 24.606V2.54C0.386756 2.08667 0.602089 1.74667 1.03276 1.52C1.46342 1.27067 1.98476 1.146 2.59676 1.146C3.41276 1.146 4.03609 1.29333 4.46676 1.588C4.89742 1.88267 5.37342 2.51733 5.89476 3.492L12.4568 16.174V2.506C12.4568 2.05267 12.6721 1.71267 13.1028 1.486C13.5334 1.25933 14.0548 1.146 14.6668 1.146C15.2788 1.146 15.8001 1.25933 16.2308 1.486C16.6614 1.71267 16.8768 2.05267 16.8768 2.506V24.606C16.8768 25.0367 16.6501 25.3767 16.1968 25.626C15.7661 25.8753 15.2561 26 14.6668 26C13.4654 26 12.6154 25.5353 12.1168 24.606L4.80676 10.938V24.606C4.80676 25.0367 4.58009 25.3767 4.12676 25.626C3.69609 25.8753 3.18609 26 2.59676 26C1.98476 26 1.46342 25.8753 1.03276 25.626C0.602089 25.3767 0.386756 25.0367 0.386756 24.606ZM21.1427 24.606V2.54C21.1427 2.10933 21.3354 1.76933 21.7207 1.52C22.106 1.27067 22.5594 1.146 23.0807 1.146H35.1847C35.638 1.146 35.978 1.33867 36.2047 1.724C36.454 2.10933 36.5787 2.55133 36.5787 3.05C36.5787 3.594 36.454 4.05867 36.2047 4.444C35.9554 4.82933 35.6154 5.022 35.1847 5.022H25.5627V11.822H30.7307C31.1614 11.822 31.5014 12.0033 31.7507 12.366C32 12.706 32.1247 13.114 32.1247 13.59C32.1247 14.0207 32 14.4173 31.7507 14.78C31.524 15.12 31.184 15.29 30.7307 15.29H25.5627V22.124H35.1847C35.6154 22.124 35.9554 22.3167 36.2047 22.702C36.454 23.0873 36.5787 23.552 36.5787 24.096C36.5787 24.5947 36.454 25.0367 36.2047 25.422C35.978 25.8073 35.638 26 35.1847 26H23.0807C22.5594 26 22.106 25.8753 21.7207 25.626C21.3354 25.3767 21.1427 25.0367 21.1427 24.606ZM40.362 24.606V2.506C40.362 2.14333 40.498 1.826 40.77 1.554C41.042 1.282 41.382 1.146 41.79 1.146H48.522C53.894 1.146 56.58 3.51467 56.58 8.252C56.58 10.1107 56.172 11.6067 55.356 12.74C54.5627 13.8733 53.486 14.644 52.126 15.052L56.58 23.314C56.6933 23.45 56.75 23.6313 56.75 23.858C56.75 24.4247 56.4553 24.9573 55.866 25.456C55.2767 25.932 54.6533 26.17 53.996 26.17C53.3387 26.17 52.8287 25.8187 52.466 25.116L47.638 15.732H44.782V24.606C44.782 25.0367 44.5667 25.3767 44.136 25.626C43.7053 25.8753 43.184 26 42.572 26C41.9827 26 41.4613 25.8753 41.008 25.626C40.5773 25.3767 40.362 25.0367 40.362 24.606ZM44.782 12.264H48.522C50.9473 12.264 52.16 11.0627 52.16 8.66C52.16 6.23467 50.9473 5.022 48.522 5.022H44.782V12.264ZM60.4326 24.64V2.506C60.4326 2.14333 60.6139 1.826 60.9766 1.554C61.3393 1.282 61.8039 1.146 62.3706 1.146H68.3886C70.814 1.146 72.752 1.76933 74.2026 3.016C75.6533 4.26266 76.3786 6.23467 76.3786 8.932V18.214C76.3786 20.9113 75.6533 22.8833 74.2026 24.13C72.752 25.3767 70.814 26 68.3886 26H62.3706C61.8039 26 61.3393 25.864 60.9766 25.592C60.6139 25.32 60.4326 25.0027 60.4326 24.64ZM64.8526 22.124H68.3886C70.7686 22.124 71.9586 20.8207 71.9586 18.214V8.932C71.9586 6.32533 70.7686 5.022 68.3886 5.022H64.8526V22.124ZM80.9713 25.252V1.86C80.9713 1.42933 81.2319 1.19133 81.7533 1.146H87.8733C89.9359 1.146 91.5906 1.724 92.8373 2.88C94.0839 4.01333 94.7073 5.804 94.7073 8.252V8.626C94.7073 11.074 94.0726 12.876 92.8033 14.032C91.5566 15.188 89.9019 15.766 87.8393 15.766H82.6713V25.252C82.6713 25.7507 82.3879 26 81.8213 26C81.2546 26 80.9713 25.7507 80.9713 25.252ZM82.6713 14.202H87.8393C89.4939 14.202 90.7633 13.7487 91.6473 12.842C92.5539 11.9127 93.0073 10.5187 93.0073 8.66V8.286C93.0073 6.45 92.5539 5.07867 91.6473 4.172C90.7633 3.24267 89.4939 2.778 87.8393 2.778H82.6713V14.202ZM95.4404 25.252C95.4404 25.1613 95.4517 25.0933 95.4744 25.048L102.75 1.554C102.886 1.146 103.204 0.941998 103.702 0.941998C104.201 0.941998 104.518 1.146 104.654 1.554L111.862 25.048C111.862 25.0707 111.862 25.1047 111.862 25.15C111.885 25.1727 111.896 25.2067 111.896 25.252C111.896 25.456 111.794 25.6373 111.59 25.796C111.386 25.932 111.16 26 110.91 26C110.548 26 110.321 25.83 110.23 25.49L108.564 20.084H98.7724L97.1404 25.49C97.0271 25.83 96.7777 26 96.3924 26C96.1431 26 95.9164 25.932 95.7124 25.796C95.5311 25.66 95.4404 25.4787 95.4404 25.252ZM99.2144 18.52H108.088L103.702 4.002L99.2144 18.52ZM115.544 25.252V1.86C115.544 1.656 115.612 1.486 115.748 1.35C115.884 1.214 116.065 1.146 116.292 1.146H122.106C124.236 1.146 125.959 1.66733 127.274 2.71C128.611 3.73 129.28 5.40733 129.28 7.742C129.28 11.55 127.432 13.7147 123.738 14.236L129.178 24.776C129.246 24.912 129.28 25.048 129.28 25.184C129.28 25.4107 129.189 25.6147 129.008 25.796C128.849 25.9547 128.634 26.034 128.362 26.034C128.09 26.034 127.738 25.6373 127.308 24.844L121.97 14.406H117.244V25.252C117.244 25.7507 116.96 26 116.394 26C115.827 26 115.544 25.7507 115.544 25.252ZM117.244 12.842H122.106C125.755 12.842 127.58 11.1533 127.58 7.776C127.58 4.444 125.755 2.778 122.106 2.778H117.244V12.842ZM132.463 2.54C132.327 2.38133 132.259 2.18867 132.259 1.962C132.259 1.73533 132.327 1.54267 132.463 1.384C132.599 1.22533 132.769 1.146 132.973 1.146H146.437C146.913 1.146 147.151 1.40667 147.151 1.928C147.151 2.49467 146.913 2.778 146.437 2.778H140.589V25.252C140.589 25.7507 140.306 26 139.739 26C139.172 26 138.889 25.7507 138.889 25.252V2.778H132.973C132.769 2.778 132.599 2.69867 132.463 2.54Z" fill="white"/>
</svg>
