<svg xmlns="http://www.w3.org/2000/svg" viewBox="0 0 38 38"><style>.st0{fill:#ccc}</style><path class="st0" d="M31.4 1H6.6C3.5 1 1 3.5 1 6.6v24.6C1 34.4 3.5 37 6.6 37h24.9c3.1 0 5.6-2.6 5.6-5.7V6.6C37 3.5 34.5 1 31.4 1zm3.7 30.3c0 2.1-1.7 3.8-3.7 3.8H6.6c-2 0-3.7-1.7-3.7-3.8V6.6c0-2.1 1.7-3.8 3.7-3.8h24.9c2 0 3.7 1.7 3.7 3.8v24.7zM6.8 5.5c-.7 0-1.3.6-1.3 1.4 0 .7.6 1.3 1.3 1.3.7 0 1.4-.6 1.4-1.3 0-.8-.6-1.4-1.4-1.4zm24.4 0c-.7 0-1.4.6-1.4 1.4 0 .7.6 1.3 1.4 1.3s1.3-.6 1.3-1.3c0-.8-.6-1.4-1.3-1.4zM6.8 29.8c-.7 0-1.3.6-1.3 1.3s.6 1.4 1.3 1.4c.7 0 1.4-.6 1.4-1.4s-.6-1.3-1.4-1.3zm24.4 0c-.7 0-1.4.6-1.4 1.3s.6 1.4 1.4 1.4 1.3-.6 1.3-1.4-.6-1.3-1.3-1.3z"/><path class="st0" d="M14.3 23.7h-1.4c-.2 0-.3-.1-.3-.3v-3.7H9v3.7c0 .2-.1.3-.3.3H7.3c-.2 0-.3-.1-.3-.3v-8.7c0-.2.1-.3.3-.3h1.4c.3 0 .3.1.3.3V18h3.6v-3.3c0-.2.1-.3.3-.3h1.4c.3 0 .3.1.3.3v8.7c0 .2 0 .3-.3.3zM15.9 22.9v-7.6c0-.6.2-.8.8-.8h2.5c3.1 0 4.2 2.1 4.2 4.6 0 2.4-1 4.7-4.1 4.7h-2.6c-.6-.1-.8-.4-.8-.9zm3.1-6.8h-1v5.7h1c1.9 0 2.3-1.2 2.3-2.9.1-1.5-.4-2.8-2.3-2.8zM24.5 22.9v-7.6c0-.6.2-.8.8-.8h2.5c3.1 0 4.2 2.1 4.2 4.6 0 2.4-1 4.7-4.1 4.7h-2.6c-.6-.1-.8-.4-.8-.9zm3-6.8h-1v5.7h1.1c1.9 0 2.3-1.2 2.3-2.9 0-1.5-.5-2.8-2.4-2.8z"/></svg>