<svg xmlns="http://www.w3.org/2000/svg" width="44" height="32" viewBox="0 0 44 32"><path d="M24.3 9.05l1.87-1.86a.64.64 0 0 0 .01-.89.61.61 0 0 0-.88-.01l-1.87 1.85a10.59 10.59 0 0 0-14.47.06l-2.3-2.33a.61.61 0 0 0-.87 0 .63.63 0 0 0 0 .89l2.3 2.34a10.97 10.97 0 0 0-.01 14.28l-2.3 2.27a.64.64 0 0 0 .44 1.09.62.62 0 0 0 .44-.18l2.3-2.28a10.59 10.59 0 0 0 14.17.08l2.16 2.19a.6.6 0 0 0 .88 0 .63.63 0 0 0 0-.89l-2.15-2.19a10.97 10.97 0 0 0 .28-14.42zM11.57 19.92a6 6 0 0 1-.04-7.33l1.55 1.57a3.77 3.77 0 0 0 .06 4.2zm6.61-2.37l-1.2-1.23 1.34-1.34a2.53 2.53 0 0 1-.14 2.57zm-3.38-3.43a2.4 2.4 0 0 1 2.67-.06l-1.38 1.37zm3.57-.95a3.63 3.63 0 0 0-4.45.05l-1.54-1.55a5.8 5.8 0 0 1 7.56-.07zm-4.4 1.89l1.23 1.25-1.16 1.16a2.54 2.54 0 0 1-.07-2.41zm5.71 5.8a5.8 5.8 0 0 1-7.2-.01l1.55-1.58a3.64 3.64 0 0 0 4.11.03zm-.62-2.41a3.8 3.8 0 0 0 .17-4.38l1.57-1.56a6.03 6.03 0 0 1-.2 7.49zm3.47-9.42l-1.7 1.69a7.02 7.02 0 0 0-9.33.05L9.84 9.09a9.37 9.37 0 0 1 12.7-.06zM8.98 10l1.66 1.69a7.28 7.28 0 0 0 .03 9.12l-1.7 1.68A9.7 9.7 0 0 1 8.98 10zm7.1 7.21l1.17 1.18a2.41 2.41 0 0 1-2.32-.04l.54-.54zM9.9 23.45l1.69-1.7a7.03 7.03 0 0 0 8.98.02l1.67 1.68a9.36 9.36 0 0 1-12.33 0zm11.58-2.56a7.29 7.29 0 0 0 .22-9.27l1.7-1.68a9.71 9.71 0 0 1-.26 12.64zM41.5 5.05V2.53h-.83v2.52h-1.66V2.53h-.83v2.52H35.7v2.78a3.1 3.1 0 0 0 3.08 3.12h.24v8.98a3.62 3.62 0 0 1-3.32 3.62v-.99a1.5 1.5 0 0 0-1.49-1.51h-1.9v-16A5.03 5.03 0 0 0 27.33 0H4.98A5.03 5.03 0 0 0 0 5.05v21.9A5.03 5.03 0 0 0 4.98 32h22.35a5.02 5.02 0 0 0 4.9-4.21h1.98a1.5 1.5 0 0 0 1.49-1.51v-1.03a5.3 5.3 0 0 0 4.98-5.32v-8.98h.24A3.1 3.1 0 0 0 44 7.83V5.05h-2.5zm-10.87 21.9a3.35 3.35 0 0 1-3.32 3.37H4.98a3.35 3.35 0 0 1-3.32-3.37V5.05a3.35 3.35 0 0 1 3.32-3.37h22.35a3.35 3.35 0 0 1 3.32 3.37v21.9zm3.4-.84h-1.67v-3.37h1.66v3.37zm8.3-18.28a1.42 1.42 0 0 1-1.42 1.43h-2.15a1.42 1.42 0 0 1-1.42-1.43V6.74h4.98v1.09z" fill="#ccc" fill-rule="evenodd"/></svg>