<svg xmlns="http://www.w3.org/2000/svg" width="38" height="33" viewBox="0 0 38 33"><defs><style>.cls-1{fill:#ccc;fill-rule:evenodd}</style></defs><path class="cls-1" d="M36.83 4.09h.3a.88.88 0 0 0 .87-.88V.88a.88.88 0 0 0-.88-.88H.88A.88.88 0 0 0 0 .88v2.33a.88.88 0 0 0 .88.88h.29a.54.54 0 0 1 .4.18.57.57 0 0 1 .17.41.56.56 0 0 1-.17.4.54.54 0 0 1-.4.18h-.3a.88.88 0 0 0-.87.88v2.08a.88.88 0 0 0 .88.88h.29a.57.57 0 0 1 .4.17.58.58 0 0 1 .17.41.58.58 0 0 1-.57.58h-.3a.89.89 0 0 0-.87.89v2.97a.88.88 0 0 0 .88.88H12.6a.88.88 0 0 0 .88-.88v-.79a.57.57 0 0 1 .17-.41.58.58 0 0 1 .81 0 .57.57 0 0 1 .17.41v.79a.88.88 0 0 0 .88.88h21.6a.88.88 0 0 0 .88-.88v-2.97a.89.89 0 0 0-.88-.89h-.29a.58.58 0 0 1-.57-.58.58.58 0 0 1 .17-.41.57.57 0 0 1 .4-.17h.3a.88.88 0 0 0 .87-.88V6.14a.88.88 0 0 0-.88-.88h-.29a.54.54 0 0 1-.4-.18.56.56 0 0 1-.17-.4.57.57 0 0 1 .17-.41.54.54 0 0 1 .4-.18zM34.5 9.68a2.33 2.33 0 0 0 .69 1.66 2.36 2.36 0 0 0 1.06.62v1.27H16.39a2.33 2.33 0 0 0-.68-1.56 2.36 2.36 0 0 0-3.3 0 2.33 2.33 0 0 0-.67 1.56H1.75v-1.27a2.37 2.37 0 0 0 1.06-.62 2.33 2.33 0 0 0 .69-1.66 2.36 2.36 0 0 0-.69-1.66 2.26 2.26 0 0 0-1.06-.61v-.46a2.26 2.26 0 0 0 1.06-.61 2.37 2.37 0 0 0 0-3.33 2.44 2.44 0 0 0-1.06-.61v-.63h34.5v.63a2.44 2.44 0 0 0-1.06.61 2.37 2.37 0 0 0 0 3.33 2.26 2.26 0 0 0 1.06.61v.46a2.26 2.26 0 0 0-1.06.61 2.36 2.36 0 0 0-.69 1.66zM7 12.51a.58.58 0 1 0-1.16 0v1.36a.58.58 0 1 0 1.16 0v-1.36zm3.22 0a.58.58 0 1 0-1.16 0v1.36a.58.58 0 1 0 1.16 0v-1.36zm9.64 0a.58.58 0 1 0-1.16 0v1.36a.58.58 0 1 0 1.16 0v-1.36zm3.22 0a.58.58 0 1 0-1.16 0v1.36a.58.58 0 1 0 1.16 0v-1.36zm3.21 0a.58.58 0 1 0-1.16 0v1.36a.58.58 0 1 0 1.16 0v-1.36zm3.22-1.58a.58.58 0 1 0-1.16 0v1.36a.58.58 0 1 0 1.16 0v-1.36zm3.22 0a.58.58 0 1 0-1.17 0v1.36a.58.58 0 1 0 1.17 0v-1.36zM6.77 3.16h3.53a.55.55 0 0 1 .56.54v5.23a.55.55 0 0 1-.56.54H6.76a.55.55 0 0 1-.55-.54V3.7a.55.55 0 0 1 .55-.54zm2.98 1.09H7.32v4.13h2.42V4.25zm4-1.09h3.54a.55.55 0 0 1 .55.54v5.23a.55.55 0 0 1-.55.54h-3.54a.55.55 0 0 1-.56-.54V3.7a.55.55 0 0 1 .55-.54zm2.98 1.09H14.3v4.13h2.42V4.25zm4-1.09h3.54a.55.55 0 0 1 .55.54v5.23a.55.55 0 0 1-.55.54h-3.54a.55.55 0 0 1-.56-.54V3.7a.55.55 0 0 1 .55-.54zm2.98 1.09h-2.42v4.13h2.41V4.25zm4-1.09h3.53a.55.55 0 0 1 .56.54v5.23a.55.55 0 0 1-.56.54H27.7a.55.55 0 0 1-.56-.54V3.7a.55.55 0 0 1 .56-.54zm2.98 1.09h-2.43v4.13h2.43V4.25zM36.83 22.09h.3a.88.88 0 0 0 .87-.88v-2.33a.88.88 0 0 0-.88-.88H.88a.88.88 0 0 0-.88.88v2.33a.88.88 0 0 0 .88.88h.29a.54.54 0 0 1 .4.18.57.57 0 0 1 .17.41.6.6 0 0 1-.17.41.57.57 0 0 1-.4.17h-.3a.88.88 0 0 0-.87.88v2.08a.88.88 0 0 0 .88.88h.29a.57.57 0 0 1 .4.17.58.58 0 0 1 .17.41.58.58 0 0 1-.57.58h-.3a.89.89 0 0 0-.87.89v2.97a.88.88 0 0 0 .88.88H12.6a.88.88 0 0 0 .88-.88v-.79a.57.57 0 0 1 .17-.41.58.58 0 0 1 .81 0 .57.57 0 0 1 .17.41v.79a.88.88 0 0 0 .88.88h21.6a.88.88 0 0 0 .88-.88v-2.97a.89.89 0 0 0-.88-.89h-.29a.58.58 0 0 1-.57-.58.58.58 0 0 1 .17-.41.57.57 0 0 1 .4-.17h.3a.88.88 0 0 0 .87-.88v-2.08a.88.88 0 0 0-.88-.88h-.29a.57.57 0 0 1-.4-.17.6.6 0 0 1-.17-.41.57.57 0 0 1 .17-.41.54.54 0 0 1 .4-.18zm-2.33 5.59a2.33 2.33 0 0 0 .69 1.66 2.36 2.36 0 0 0 1.06.62v1.27H16.39a2.33 2.33 0 0 0-.68-1.56 2.36 2.36 0 0 0-3.3 0 2.33 2.33 0 0 0-.67 1.56H1.75v-1.27a2.37 2.37 0 0 0 1.06-.62 2.33 2.33 0 0 0 .69-1.66 2.36 2.36 0 0 0-.69-1.66 2.26 2.26 0 0 0-1.06-.61v-.46a2.26 2.26 0 0 0 1.06-.61 2.37 2.37 0 0 0 0-3.33 2.44 2.44 0 0 0-1.06-.61v-.63h34.5v.63a2.44 2.44 0 0 0-1.06.61 2.37 2.37 0 0 0 0 3.33 2.26 2.26 0 0 0 1.06.61v.46a2.26 2.26 0 0 0-1.06.61 2.36 2.36 0 0 0-.69 1.66zM7 30.51a.58.58 0 1 0-1.16 0v1.36a.58.58 0 1 0 1.16 0v-1.36zm3.22 0a.58.58 0 1 0-1.16 0v1.36a.58.58 0 1 0 1.16 0v-1.36zm9.64 0a.58.58 0 1 0-1.16 0v1.36a.58.58 0 1 0 1.16 0v-1.36zm3.22 0a.58.58 0 1 0-1.16 0v1.36a.58.58 0 1 0 1.16 0v-1.36zm3.21 0a.58.58 0 1 0-1.16 0v1.36a.58.58 0 1 0 1.16 0v-1.36zm3.22-1.58a.58.58 0 1 0-1.16 0v1.36a.58.58 0 1 0 1.16 0v-1.36zm3.22 0a.58.58 0 1 0-1.17 0v1.36a.58.58 0 1 0 1.17 0v-1.36zM6.77 21.16h3.53a.55.55 0 0 1 .56.54v5.23a.55.55 0 0 1-.56.54H6.76a.55.55 0 0 1-.55-.54V21.7a.55.55 0 0 1 .55-.54zm2.98 1.09H7.32v4.13h2.42v-4.13zm4-1.09h3.54a.55.55 0 0 1 .55.54v5.23a.55.55 0 0 1-.55.54h-3.54a.55.55 0 0 1-.56-.54V21.7a.55.55 0 0 1 .55-.54zm2.98 1.09H14.3v4.13h2.42v-4.13zm4-1.09h3.54a.55.55 0 0 1 .55.54v5.23a.55.55 0 0 1-.55.54h-3.54a.55.55 0 0 1-.56-.54V21.7a.55.55 0 0 1 .55-.54zm2.98 1.09h-2.42v4.13h2.41v-4.13zm4-1.09h3.53a.55.55 0 0 1 .56.54v5.23a.55.55 0 0 1-.56.54H27.7a.55.55 0 0 1-.56-.54V21.7a.55.55 0 0 1 .56-.54zm2.98 1.09h-2.43v4.13h2.43v-4.13z"/></svg>