<svg xmlns="http://www.w3.org/2000/svg" width="25" height="46" viewBox="0 0 25 46"><path d="M19.74 0H5.26A5.22 5.22 0 0 0 0 5.19v35.62A5.22 5.22 0 0 0 5.26 46h14.48A5.22 5.22 0 0 0 25 40.81V5.19A5.22 5.22 0 0 0 19.74 0zm3.6 40.81a3.57 3.57 0 0 1-3.6 3.55H5.26a3.57 3.57 0 0 1-3.6-3.55V5.19a3.57 3.57 0 0 1 3.6-3.55h14.48a3.57 3.57 0 0 1 3.6 3.55v35.62zm-10.66-4.9h-.72a1 1 0 0 0-1 1v.7a1 1 0 0 0 1 1h.72a1 1 0 0 0 1-1v-.7a1 1 0 0 0-1-1zM5.03 18.86h15V6.54h-15v12.32zm1.25-1.23v-2.26h12.5v2.26H6.28zm0-3.49v-2.88h12.5v2.88H6.28zm12.5-6.37v2.26H6.28V7.77h12.5z" fill="#ccc" fill-rule="evenodd"/></svg>