<svg xmlns="http://www.w3.org/2000/svg" viewBox="0 0 363.02 453.09"><title>howtoBuild</title><path d="M464.52,247.64c0-11.91,1.52-26.95-1-34.54-1.56-4.66-6.11-10-11.34-11.86-7.37-2.65-21.29-1-32-1H293.91c.28-.29.58-.58.85-.88s.66-.61.84-.84.16-.95.42-1.26c.41-.49,1.27-.77,1.68-1.26,1-1.17,1.59-2.54,2.52-3.79s2.12-2.16,2.95-3.37c.27-.4.18-.88.42-1.26.45-.73,1.43-1.83,2.1-2.94a78.06,78.06,0,0,0,4.21-8.41c.44-1,1.11-2.12,1.68-3.37a66.74,66.74,0,0,0,3.36-10.94c2.12-9.46,2.46-22.92,0-33.23a79.33,79.33,0,0,0-8.83-21.45c-.16-.28-.19-1-.42-1.26s-.73-.24-.84-.42c-.37-.58-.49-1.57-.84-2.1-.21-.32-.6-.44-.84-.84-3.9-6.34-10.31-13.2-16-18.09C270.1,69.79,248,59.73,218.62,57.57c-.66,0-.73-.39-1.26-.42-31.64-1.86-58.12,7.63-76.14,20.19-1.54,1.08-3.64,2.4-5.47,3.79A96,96,0,0,0,126.08,90c-1.08,1.08-2.4,1.86-3.37,2.94-.28.31-.18.95-.42,1.26-.41.54-1.11.82-1.68,1.68-1.07,1.62-3.24,3.89-4.63,5.89-.22.31-.16.91-.42,1.26a26.07,26.07,0,0,0-2.1,2.52c-.38.64-.49,1.5-.84,2.1-.78,1.34-1.8,2.36-2.52,3.79a76.7,76.7,0,0,0-3.37,8.83,72.12,72.12,0,0,0-4.63,30.29,75.75,75.75,0,0,0,10.1,32.81c.88,1.54,2,2.73,2.94,4.21.5.76.74,1.76,1.26,2.52s1.22,1.05,1.68,1.68a85.73,85.73,0,0,0,10.1,11.36c.66.63,1,1.51,1.68,2.1.53.45,1.5.74,2.1,1.26,1.26,1.08,2.48,2.29,3.79,3.37,3.57,2.94,7.4,6.42,11.36,9.67,12.76,10.5,24.87,20.82,37,31V432.2c0,22.83-.55,46.35,0,68.05.07,2.8-.7,5.9,1.55,8.25,4.32,1.78,10.09,1,16,1,5.07,0,12.57,1.08,17,0,3.89-.94,6-4.94,8.76-7.73,2-2,5.42-3.86,5.15-7.22a5.13,5.13,0,0,0-1.55-3.09c-5.43-5.38-11.09,6-13.92,7.73-2.61,1.57-10.53.52-13.4.52-3.15,0-6.07.44-9.79-.52V258.78c5,4.17,10,8.33,15.08,12.48.22.65.44,0,.42-.42a76.26,76.26,0,0,1-3.79-9.25c-3.45-8.93-7.4-18.59-10.94-28.18,4.07-.16,7.93.36,11.78.42A132.43,132.43,0,0,0,244.61,229c31.84-.08,64.3-.18,94.12.56v92.28c0,4.07-.73,8.57,1,12.37,2.49,2,5.83,1.49,9.28,1.55,18.7.29,36.5,0,55.16,0,7.82,0,17.08,1.19,17-5.16a4.26,4.26,0,0,0-1.55-3.09c-1.24-1.34-1.06-1.08-3.09-1.55-2.6-.59-6.77,0-9.79,0-19.8,0-40.92.42-58.26-.52.34-32-.69-65.3.52-96.41h57.74c3,0,7.13.61,9.79,0,2-.46,1.8-.15,3.09-1.55a4.26,4.26,0,0,0,1.55-3.61c-.27-3.75-3.73-4.4-8.76-4.64-5.53-.26-8.88,0-13.4,0H268.5c2.2-1.23,4.4-2.55,6.49-4,.31-.21.92-.16,1.26-.42.51-.38,1.61-1.47,2.52-2.1,1.25-.87,2.55-1.8,3.86-2.79H430.5V499.74H420.19c-3.1,0-6.75.86-10.31,0s-5.07-3.76-7.73-6.19c-2.42-2.21-5.06-5.73-8.76-2.06-4.55,4.5,1.88,8.58,3.61,10.31,3.53,3.53,5.31,6.91,9.28,7.73,4.87,1,14.73,0,23.2,0,8,0,17.25.63,22.17-1a7.05,7.05,0,0,0,2.58-1.55c.42-.32,1.17-.25,1.55-.52a17.93,17.93,0,0,0,6.7-8.25c.49-1.07,1.37-1.89,1.55-2.58,1.19-4.54.52-10.89.52-17ZM224.4,92.07c1.95,3,3.79,5,3.79,9.25a12.44,12.44,0,0,1-2.1,6.73,8.93,8.93,0,0,1-4.21,4.21c-.48.27-1,.13-1.68.42-.21.09-.69.79-.84.84a15,15,0,0,1-3.37.42,12.64,12.64,0,0,1-13-12.2C202.71,91.49,214.4,84.26,224.4,92.07ZM192,170.31c1.16-6.23,2.57-14.08,3.79-20.61.71-3.81.87-7.54,2.1-10.1.17-.35.83-1,1.26-1.68a10.08,10.08,0,0,1,2.94-2.52,12,12,0,0,1,5.89-2.52,12.94,12.94,0,0,1,7.15,1.68,13.79,13.79,0,0,1,4.63,3.79c.27.41.18.88.42,1.26a15.47,15.47,0,0,1,1.68,4.63c.24,3.12-1,5.83-1.68,8.83s-1.08,6.12-1.68,8.83c-1.26,5.69-3,10.71-2.94,17.67,1.91,6.75,7.61,11.59,16.83,9.67a23.44,23.44,0,0,1-10.63,11H203.22a21.74,21.74,0,0,1-12.89-19.39C190.25,177.33,191.3,174.13,192,170.31Zm262.72,315c-.1,6.72-.25,11.13-5.16,13.4-2.31,1.07-4.82,1.22-8.25,1-2,.41-.66-2.44-1-3.61V211.55c0-.73-.08-1.46.52-1.55a13,13,0,0,1,12.37,4.12c2.35,2.45,1.55,10.25,1.55,16v245.4C454.73,478.3,454.78,481.76,454.73,485.3Z" transform="translate(-101.96 -56.92)" style="fill:#fff;fill-rule:evenodd"/><path d="M291.3,262.07c-.07-.15-.9-.34-1-.51a38.59,38.59,0,0,0-4.64-5.67c-.86-.78-2.1-1.28-3.09-2.06a46.48,46.48,0,0,0-12.89-7.73c-5.69-2-14.09-2.52-19.07-2.06-6.55.61-11.13,1.77-16,4.12-6,2.92-12,7.34-15.47,11.86a61,61,0,0,0-5.67,8.25,45.21,45.21,0,0,0-5.16,17,47.75,47.75,0,0,0,3.09,21.14,28.2,28.2,0,0,0,2.06,4.64c.42.44.16.42.52,1,1.19,2,2.86,4,3.61,5.67.25.55,1.71,1.64,2.06,2.06a32.08,32.08,0,0,0,5.67,5.16c1.08.87,2,1.81,3.09,2.58a45.13,45.13,0,0,0,7.22,4.13c10.65,4.76,24.06,4.89,34,1a42.32,42.32,0,0,0,9.28-4.64c4.34-2.85,7.73-5.39,10.31-8.76a62.29,62.29,0,0,0,5.67-8.25,46.42,46.42,0,0,0,5.16-26.81,36.86,36.86,0,0,0-2.58-9.28c-.45-1.27-.54-3-1-4.12-.64-1.44-1.55-3-2.06-4.12-.08-.17-.9-.32-1-.52s.12-.77,0-1-.91-.32-1-.52.12-.77,0-1-.9-.32-1-.52S291.42,262.34,291.3,262.07Zm-30.42-7.73a37.1,37.1,0,0,1,9.28,3.09c2.41,1.1,5.71,2.08,6.7,4.64A115.36,115.36,0,0,0,264,270.32a14.55,14.55,0,0,0-6.19-2.06C258.54,263.33,260.31,259.44,260.89,254.34Zm-10.31-1c.45,4.58-2.52,10.2-3.09,15.47-2.48.44-3.7,2.14-6.19,2.58A115.92,115.92,0,0,0,234.08,260C237.94,256.14,244.26,254.73,250.58,253.31Zm-24.75,13.4c3.45,3.77,5.71,8.72,8.76,12.89-.29,2.29-1.67,3.49-1.55,6.19-5.12-.55-9.38-2-13.92-3.09C220,276,222.91,271.35,225.83,266.71ZM231,305.89c-.27.12-.79-.16-1,0-1.95,1.26-3.59,3.31-6.19,3.61A46.49,46.49,0,0,1,218.1,293c4.87,1.14,9.46,2.57,15,3.09,1.1,1.83,1.71,4.14,3.09,5.67-.53,1.4-2,1.36-3.09,2.06-.19.13-.35,1-.52,1s-.79-.16-1,0S231.15,305.82,231,305.89ZM247.48,325c-2.35-.78-4.52-1-7.22-2.06a39.56,39.56,0,0,1-5.67-3.09c-1.1-.68-2.87-1-3.09-2.58A147.22,147.22,0,0,0,244.39,309a18.32,18.32,0,0,0,6.19,2.06C249.76,315.9,248.16,320,247.48,325Zm6.7-23.2c-7.38,0-14.09-7.48-11.34-16.5,0-.1.34-1.18.52-1.55s.94-.32,1-.52c4.8-10.65,26.21-5.45,21.14,11.34C262.77,298.51,259.88,301.77,254.18,301.77Zm3.09,23.71c1.16-5,2.62-9.75,3.61-15,1.76-.81,3.89-1.26,5.16-2.58.83-.15.89.49,1.55.52,1.85,4.16,4.85,7.18,6.7,11.34C269.4,322.49,264.71,325.35,257.28,325.49Zm25.26-12.89c-3.36-3.86-5.59-8.84-8.76-12.89.63-2.29,1.52-4.33,2.06-6.7,4.22,1.45,9.19,2.15,13.4,3.61C288.4,303.34,285.41,307.91,282.54,312.6Zm-7.73-29.9c-.6-2-1.23-3.93-2.58-5.16,2.93-3.26,7.76-4.61,10.83-7.73h1.55c2.5,4.72,4.82,9.61,5.67,16C284.69,285.19,280,283.7,274.81,282.7Z" transform="translate(-101.96 -56.92)" style="fill:#fff;fill-rule:evenodd"/><path d="M375.34,244c-6.71-.86-17.72-2.15-17.53,4.64,0,1.48,1.17,2.51,2.06,4.12,4.43.64,12.87,1.31,16.5-.52C378.3,250.07,377.37,245.29,375.34,244Z" transform="translate(-101.96 -56.92)" style="fill:#fff;fill-rule:evenodd"/><path d="M414,244c-6.71-.86-17.72-2.15-17.53,4.64,0,1.48,1.17,2.51,2.06,4.12,4.43.64,12.87,1.31,16.5-.52C417,250.07,416,245.29,414,244Z" transform="translate(-101.96 -56.92)" style="fill:#fff;fill-rule:evenodd"/><path d="M328.94,280.12a14.12,14.12,0,0,0,0-5.15c-2.56-3.77-11.67-2.67-17-2.06a23,23,0,0,1-2.06,2.58,12.91,12.91,0,0,0,.51,5.16C313.84,283.69,326.14,283.87,328.94,280.12Z" transform="translate(-101.96 -56.92)" style="fill:#fff;fill-rule:evenodd"/><path d="M376.88,274.45c-2-2.33-9.61-2.54-13.92-2.06-4.47.49-5.56,4.67-4.64,7.73,2.79,3.75,15.09,3.58,18.56.52A9.17,9.17,0,0,0,376.88,274.45Z" transform="translate(-101.96 -56.92)" style="fill:#fff;fill-rule:evenodd"/><path d="M415.55,274.45c-2-2.33-9.61-2.54-13.92-2.06-4.47.49-5.56,4.67-4.64,7.73,2.79,3.75,15.09,3.58,18.56.52A9.19,9.19,0,0,0,415.55,274.45Z" transform="translate(-101.96 -56.92)" style="fill:#fff;fill-rule:evenodd"/><path d="M309.86,308.47c.4.11.6.43.51,1,2.81,3.21,13.27,2.49,17.53,1,.29-1.58,1.58-2.47,1.55-4.12s-1.38-2.84-2.06-4.12C321.28,302.12,307.57,298.54,309.86,308.47Z" transform="translate(-101.96 -56.92)" style="fill:#fff;fill-rule:evenodd"/><path d="M361.42,301.77c-3.39.82-4.24,5.14-2.58,8.25,3.65,2.3,15.11,2.65,18-.51.83-1.91.75-5.39-.51-6.7C373.08,300.76,366.32,302.2,361.42,301.77Z" transform="translate(-101.96 -56.92)" style="fill:#fff;fill-rule:evenodd"/><path d="M400.08,301.77c-3.39.82-4.24,5.14-2.58,8.25,3.65,2.3,15.11,2.65,18-.51.83-1.91.75-5.39-.52-6.7C411.74,300.76,405,302.2,400.08,301.77Z" transform="translate(-101.96 -56.92)" style="fill:#fff;fill-rule:evenodd"/><path d="M340.28,373.43a6.71,6.71,0,0,0,6.7,0c2.43-1.18.81-6.4,2.06-8.76h54.13c6.56,0,12.74,1,17-1.55,0-1.16,1.18-2.41,1-4.12-.51-5.65-9.18-4.12-15-4.12H348.53c-.1-3,.49-6.67-1-8.25-1.25-1.73-5.48-2.16-7.22-.52-2.38,2.55-1.55,8.38-1.55,13.4S337.88,370.78,340.28,373.43Z" transform="translate(-101.96 -56.92)" style="fill:#fff;fill-rule:evenodd"/><path d="M230.47,364.15c2.66-1.63,2.66-7.14,0-8.76-3.8-.05-10.41-1.65-13.92-.52s-4.13,4.9-3.09,7.73C216.16,365.86,225.59,364.75,230.47,364.15Z" transform="translate(-101.96 -56.92)" style="fill:#fff;fill-rule:evenodd"/><path d="M245.42,354.87c-3,.78-4.49,5-2.58,7.73,1.74,2.68,5.17,2,8.25,2.06,17.43.61,35.1,0,52.07,0,7,0,16.06,1.89,16.5-4.64-.08-7-8.93-5.16-14.43-5.16Z" transform="translate(-101.96 -56.92)" style="fill:#fff;fill-rule:evenodd"/><path d="M232,386.83c1.09-2.17.28-4.92-.52-6.7-3.36-2-10-.66-15-1-3.34.67-4.57,5.16-2.58,8.25C217.62,389.65,229.09,390,232,386.83Z" transform="translate(-101.96 -56.92)" style="fill:#fff;fill-rule:evenodd"/><path d="M251.09,388.9c18,.63,34.75,0,52.59,0,7.5,0,16.11,1.44,16-5.16-.11-6-8.64-4.64-15-4.64H245.42c-3.08.67-4.48,5-2.58,7.73C244.5,389.5,248.13,388.79,251.09,388.9Z" transform="translate(-101.96 -56.92)" style="fill:#fff;fill-rule:evenodd"/><path d="M348,390.44a6.26,6.26,0,0,0-8.76,0c-.85,3.82-.55,10.78-.52,16.5,0,6-.42,12.13,6.19,10.83,4-.79,3.26-5,4.13-9.79h57.22c6.94,0,14.85,1.4,15-4.64,0-1.56-1.16-2.53-1-3.61-4.73-2.54-10.71-1.55-16.5-1.55H348.53C348.44,395.51,348.85,392.36,348,390.44Z" transform="translate(-101.96 -56.92)" style="fill:#fff;fill-rule:evenodd"/><path d="M231,403.85c-4.07-1.08-10.05-.26-15-.52-2.85,1.06-4,5.29-2.06,8.25,4.13,2.22,16.54,3.06,18.56-1.55C232.94,407.05,231.89,405.52,231,403.85Z" transform="translate(-101.96 -56.92)" style="fill:#fff;fill-rule:evenodd"/><path d="M242.33,410c1.63,4.07,10.81,3.09,18,3.09h43.31c8.09,0,16.6,1,16-5.67a4.64,4.64,0,0,0-5.67-4.12H244.91C242.81,404.58,241.07,406.9,242.33,410Z" transform="translate(-101.96 -56.92)" style="fill:#fff;fill-rule:evenodd"/><path d="M340.28,460.56a10.48,10.48,0,0,0,6.7,0c2-1.57,1-6.2,2.06-8.76H407.3c6.85,0,14.43.57,13.92-5.67-.17-2.11-1.62-4.32-5.16-4.12H348.53c-.1-3,.49-6.67-1-8.25-1.25-1.73-5.48-2.16-7.22-.52-2.39,2.67-1.55,8.33-1.55,13.4S338,457.71,340.28,460.56Z" transform="translate(-101.96 -56.92)" style="fill:#fff;fill-rule:evenodd"/><path d="M216,442c-2.85,1.06-4,5.29-2.06,8.25,4.13,2.22,16.54,3.06,18.56-1.55.4-3-.65-4.51-1.55-6.19C226.91,441.43,220.94,442.25,216,442Z" transform="translate(-101.96 -56.92)" style="fill:#fff;fill-rule:evenodd"/><path d="M204.18,477.05c-.36.41-.36,1.52-.52,2.06a4.9,4.9,0,0,0,0,3.61C205,485.65,209,485.3,215,485.3c66.61,0,130.17,1,196.42,0,5.57-.08,9.71.24,9.8-4.64.09-5.14-4.2-4.92-8.25-5.16-5.11-.3-10.7,0-13.92,0H235.11c-7.18,0-23.66-1.36-28.35.52C205.58,476.49,204.74,476.41,204.18,477.05Z" transform="translate(-101.96 -56.92)" style="fill:#fff;fill-rule:evenodd"/></svg>