<svg xmlns="http://www.w3.org/2000/svg" viewBox="0 0 566.93 566.93"><title>icob-btn-05</title><path d="M95.24,168.3V367.54h415V168.3ZM499.86,357.35H105.29V178.7H499.86Z" style="fill:#fff;fill-rule:evenodd"/><path d="M116,169.3c6.19-.87,16.47-.41,24.22-.41H471.94c8.4,0,17-.6,22.17,1.23a24.47,24.47,0,0,1,10.26,7.39,24.79,24.79,0,0,1,5.34,12.32c.87,5.92.41,12.81.41,19.3V327.37c0,6.58.44,13.06-.41,18.88-1.49,10.11-7.57,16-15.6,19.71-4.6,2.12-15.38,1.23-23.81,1.23H136.9c-8.44,0-17.19,1-23.4-.41a25.7,25.7,0,0,1-6.57-2.87,24,24,0,0,1-11.08-16c-1.06-6.2-.41-13.3-.41-20.12V205.43c0-7.25-.59-14.25.82-19.3C98.9,176.73,106.43,170.64,116,169.3Zm133,9.86c-1.11-1.21-6.64-.41-9.44-.41H134.85c-5.54,0-11.32-.62-16.42,0-5.66.68-10.53,3.91-12.32,9.85-1.49,5-.81,12-.81,19.3V329.84c0,7.74-.61,15.25,1.23,19.3a14.2,14.2,0,0,0,9.86,7.8c3.78.8,8,.41,12.31.41H249.4c1,.06,23.54-30.91,23.81-31.21,1.09-1.19,6.46-.41,9-.41H334c1-.07,23.54,30.9,23.82,31.21,1.14,1.24,7,.41,9.86.41h93.61c9.3,0,25.95,1.59,32-2.06A14.62,14.62,0,0,0,499,347.9c1.57-4.83.82-12.18.82-19.3V207.07c0-7.44.84-15.43-.82-19.71-1-2.42-4.7-6-6.58-7-4.13-2-10.49-1.64-17.24-1.64H357.38c-1-.07-23.85,30.82-24.22,31.2-1.08,1.09-6.07.4-8.62.4H272.8C271.13,209.79,249.26,179.46,249,179.16Zm29.16,21.35h49.27c5.65-5.85,17.37-22.06,16-21.76-27.37.27-55.84-.55-82.53.41C261.36,179.24,275.89,199.72,278.14,200.5ZM263.36,357.35h82.11c.6-.37-15.33-21.63-16.83-21.77H279.37C278.77,335.82,262,357.65,263.36,357.35Z" style="fill:#fff;fill-rule:evenodd"/><path d="M448.94,217.75c1.39,1.39,3.1,2.56,4.52,4.1.47.53.39,1.12.81,1.65.29.36,1,.48,1.23.82a83.62,83.62,0,0,1,7,9.85,70.21,70.21,0,0,1,9.45,41.48,57.37,57.37,0,0,1-2.47,11.91c-.37,1.27-.68,2.93-1.22,4.51-.45,1.3-1,2.48-1.65,4.11a73.53,73.53,0,0,1-7.8,13.55c-2.29,3.12-4.84,5.76-7,8.63-2.83,1.27-3.91,4.3-7,5.33-2.41,2.78-6,4.28-9.45,6.17a63.79,63.79,0,0,1-10.67,4.92,68.12,68.12,0,0,1-27.51,2.88c-18.39-1.85-32.71-10-42.29-19.71-6.26-6.49-11.49-13.41-15.19-22.59a74.42,74.42,0,0,1-2.87-9.44,68.27,68.27,0,0,1,59.94-85c.64-.06.72-.37,1.24-.41a71.42,71.42,0,0,1,50.91,17.25Zm-30.38,32.43c2.08,2.43,4.55,4.5,6.15,7.39,1.17,2.11,1.53,4.41,2.87,6.58,1.81-.92,3.5-1.89,5.34-2.88a29.54,29.54,0,0,0,3.28-1.64c.35-.34.89-.49,1.24-.82,1.19-1.14,3.64-3.1,4.52-4.11s1.64-1.87,2.46-2.87a25.41,25.41,0,0,0,3.28-5.75c.56-1.14,1.19-2.13,1.65-3.28a41.08,41.08,0,0,0,2-7.39c-10.22-13.6-24.11-23.51-46.4-25.05-.25,0-.49.06-.41.41C413.8,219.09,420.68,231.9,418.56,250.18Zm-60.77-18.06c-.12.61-1.76,1.73-.82,2,0-.24.06-.49.41-.41,12.66-.19,21.82,3.47,28.75,8.21.93.64,1.87,1.6,2.46,2.06.33.24.91.14,1.24.41,1.14,1,1.59,2.64,3.28,2.87,3.91-2.09,10.77-3.31,16-1.65,0-17.8-8.55-27-19.71-33.66A62.32,62.32,0,0,0,357.79,232.12Zm-8.21,13.13c-1.91,5.44-4.44,12.39-4.92,20.12-.59,9.44,1.28,19.23,4.51,25.87q9-19,30.39-25.46c.35-5.53,3-8.78,5.33-12.32C377.53,246.4,363.17,241.08,349.58,245.25Zm77.6,29.16a36.13,36.13,0,0,1-2.87,7.39c-1.64,2.69-4.33,4.23-5.74,7,7.72,7.5,18.1,14.44,34.08,12.32,8.69-11.24,12.92-35.85,5.74-52.55,0-.25-.06-.5-.41-.41C452.15,261.33,442.08,270.28,427.18,274.41Zm-37.36-10.26c-3.72,12.2,7.66,23,19.3,18.47a16.84,16.84,0,0,0,4.52-3.28,14.94,14.94,0,0,0,4.11-11.08c-.29-5.28-3.09-7.79-5.75-10.27a12.74,12.74,0,0,0-11.91-2.46C395.37,256.05,390.82,260.84,389.82,264.15Zm-34.08,39.41c9.85,12.87,23,22.44,43.92,24.23.63-.89-1-1.28-1.23-1.64s-.17-.92-.41-1.24c-.72-.93-1.72-1.76-2.46-2.87a50,50,0,0,1-7.4-33.26c-.12-1.49-1.66-2-2.46-2.87a23.59,23.59,0,0,1-5.34-9.45c0-.24-.05-.48-.4-.41C367.55,280.88,358.79,289.37,355.74,303.56ZM415.27,327c10.46-2.68,19.28-7,26.29-13.13.84-.13.8-1.12,1.64-1.23,0-.6,1.73-1.3,0-1.24-3.17.16-6.19-1.09-8.21-1.63-1-.29-2.08-.15-2.87-.41-.63-.21-1.35-1-2-1.24s-1.67-.45-2.47-.82a69.72,69.72,0,0,1-7.39-4.11,40.86,40.86,0,0,1-7.8-7,14.52,14.52,0,0,0-3.7-3.28,20.15,20.15,0,0,1-10.67,0C397.27,310.75,404.82,320.31,415.27,327Z" style="fill:#fff;fill-rule:evenodd"/><path d="M193.15,203.38a68.9,68.9,0,0,1,40.23,7.8,67.7,67.7,0,0,1,10.27,7,72.17,72.17,0,0,1,9,8.21c.32.36.44,1.19.82,1.65.7.81,2,2,2.87,3.28.36.48.52,1.16.82,1.65.11.15.76.27.82.41s-.13.62,0,.81.76.28.82.41-.13.63,0,.82.76.27.82.41c1.63,3.62,4.13,7.86,5.74,12.32a69.13,69.13,0,0,1,3.69,29.56c-2,20.44-10.89,34.49-23.4,45.57S215.52,341.76,194,340.1c-11.53-.89-23.57-6-31.62-11.5A77.41,77.41,0,0,1,151.69,320,68.85,68.85,0,0,1,139,301.51a71.08,71.08,0,0,1-4.52-11.08A69.41,69.41,0,0,1,132,266.2,67.1,67.1,0,0,1,138.54,242,69.15,69.15,0,0,1,164,213.24c1.46-.93,3.25-1.59,4.93-2.47a61,61,0,0,1,14-5.74A78,78,0,0,1,193.15,203.38Zm23,48.86c.2,1.65,2,2.23,2.87,3.28a28.1,28.1,0,0,1,5.34,10.67A34.69,34.69,0,0,0,235,260.85a46.69,46.69,0,0,0,6.57-6.15c.36-.44.49-1.52.82-2,.12-.18.69-.23.82-.41s.24-1,.41-1.23a53.53,53.53,0,0,0,2.46-4.93,30.81,30.81,0,0,0,2.47-8.21c-10-13.83-23.9-23.73-46.41-25-.24,0-.49.06-.4.41C211.25,221.55,217.3,233.29,216.14,252.24Zm-29.57-37.78A60.74,60.74,0,0,0,155,234.58c.06.71-2.33,1.61-.41,1.65,17-.59,26.92,5.92,35.71,13.54,3.57-2.45,10.3-3,16-2C206.18,230.18,198,220.72,186.58,214.46Zm-14,34.9c-7.16-3.33-16.41-4.24-25.45-2a60.17,60.17,0,0,0-5.34,27.92c.46,6.75,2.44,12.89,4.11,18.06.92,0,1.36-1.14,1.65-1.65.44-.79.76-1.68,1.22-2.46a45.08,45.08,0,0,1,4.11-6.15,49,49,0,0,1,9.45-8.21,48.16,48.16,0,0,1,14.37-6.57,18.72,18.72,0,0,1,3.28-9c.17-1.75,1.82-2,2.06-3.69C179.17,253.77,176.34,251.09,172.62,249.36Zm51.74,27.51a22.9,22.9,0,0,1-1.24,3.7,24.05,24.05,0,0,1-1.65,3.69c-.1.17-.69.23-.81.41-.26.35-.19.92-.41,1.23-.8,1.1-4.55,4.22-4.52,4.93,0,0,4,3.65,4.52,4.11.78.65,1.38,1.45,1.64,1.64.52.38,1.55.49,2.06.82.18.11.22.68.41.82s.95.24,1.22.41c6.43,3.78,15.73,6.43,24.23,4.92,8.58-11,13.17-36,5.75-52.55,0-.25-.06-.48-.41-.41C249.38,263.84,239,272.5,224.36,276.87ZM186.17,272a14.44,14.44,0,1,0,28.73-2.47,16.37,16.37,0,0,0-5.33-9.44c-.44-.34-1.44-.49-2.06-.82s-1.21-1.08-1.65-1.23c-6.34-2.29-11.85.37-15.6,3.28C187.78,264.77,186.08,267.94,186.17,272Zm-9,6.56c-12.66,4.31-20.65,13.29-24.23,26.69a40.15,40.15,0,0,0,7.8,9.44c9.06,8.57,20.88,14,36.55,15.6-.42-1.53-2.28-2.8-2.87-3.69-.25-.36-.62-.52-.82-.81-.38-.55-.49-1.54-.82-2.06-.12-.18-.68-.22-.82-.41s-.23-.94-.41-1.22a33.21,33.21,0,0,1-2.87-5.75c-2.91-7.35-4.74-17.41-2.87-25.87C181.41,287.93,179.46,283,177.14,278.51Zm29.15,16.43c-2.61,1.33-7.87.88-11.08.4-.59,11,2.65,19.33,7,24.64,3,3.62,6,7.37,10.27,9,10.89-2.11,19.06-6.94,26.27-12.73.12-.85,1.1-.82,1.65-1.24,0-.6,1.73-1.3,0-1.23C224.67,311.86,214.3,304.59,206.28,294.94Z" style="fill:#fff;fill-rule:evenodd"/><path d="M57.18,168.3c-1,2.47-.15,7.7-.41,10.86H86.32c-.27,4.24.55,9.58-.41,13.13H69.07v68.15H86.32c-.27,3.16.54,7.39-.41,9.86H69.07v68.56H86.32v59.29h9.85V168.3Zm29.15,82.29H78.93c.27-16-.55-33.11.41-48.44h7Zm0,78H78.93c.27-16-.55-33.12.41-48.45h7Z" style="fill:#fff;fill-rule:evenodd"/><path d="M186.23,357.35v26h37.83v-26Zm27.53,17.14H196.53V360.63h17.24Z" style="fill:#fff;fill-rule:evenodd"/><path d="M231.84,357.35v26h37.83v-26Zm27.53,17.14H242.13V360.63h17.24Z" style="fill:#fff;fill-rule:evenodd"/><path d="M277.44,358.36v25H482.58v-25Zm195.21,16.12H287.37V360.63H472.65Z" style="fill:#fff;fill-rule:evenodd"/><path d="M86.92,357.35v26h37.83v-26Zm27.53,17.14H97.21V359.62h17.24Z" style="fill:#fff;fill-rule:evenodd"/></svg>