<svg xmlns="http://www.w3.org/2000/svg" viewBox="0 0 566.93 566.93"><title>icob-btn-08</title><path d="M149,58.13c6.77-2.32,25.79-.77,35.4-.77,74.53,0,148.51-1.49,223.92,0,7.07.14,11.29.14,13.85,3.08,4.63,5.33,2.31,42.44,2.31,54.63v367c0,11.24.56,20.94-3.08,24.62-4.8,4.86-21.54,3.08-32.32,3.08H177.48c-10,0-27.57,1.89-32.32-2.31-4-3.58-3.08-17.25-3.08-26.16V82.75c0-8.41-1.78-20.24,4.62-23.85A12.41,12.41,0,0,1,149,58.13ZM162.09,78.9V490.58c80.8-.51,163.64,1,243.16-.77-.51-137.48,1-277-.77-413.21H162.86C162,76.72,162,77.81,162.09,78.9Z" style="fill:#fff;fill-rule:evenodd"/><path d="M382.17,95.06c3.87,4.35,3,11.24,3.08,17.7.07,13,0,27.17,0,40.78,0,6.73.88,13.33-1.54,18.47-6.17,4.67-15.11,3.08-23.08,3.08H204.41c-10.32,0-19.05.67-22.31-3.08-4.51-5.19-2.31-31.49-2.31-40.78,0-12.52-3.59-33.15,5.39-37.71,4.67-2.37,18.52-.77,27.7-.77H360.62C367.77,92.75,375.68,91.48,382.17,95.06ZM199,115.07v40c53.86,1.79,111.06.26,166.21.77V112.76H199.8C198.9,112.89,199,114,199,115.07Z" style="fill:#fff;fill-rule:evenodd"/><path d="M382.17,195.09c3.81,4.13,3.08,11.31,3.08,18.47v41.55c0,4.4.86,11.53-.77,15.39-2,4.62-5,4.92-12.31,5.39-11,.7-27.08,0-38.47,0h-127c-8.22,0-16.89,1-23.85-1.54-3.66-3.52-3.08-10.84-3.08-19.24,0-13.15-.15-30.71,0-44.63.11-10.3-.18-15.79,8.46-17.7,6.82-1.51,16,0,24.62,0H360.62C368.1,192.78,375.81,191.54,382.17,195.09ZM199,215.1v41.55H365.24V212.79H199.8C198.9,212.92,199,214,199,215.1Z" style="fill:#fff;fill-rule:evenodd"/><path d="M288.29,338.22c6.46,4.86,4.62,17.79,4.62,30.78,0,14.41,3.1,31.72-8.46,33.09a12.5,12.5,0,0,1-7.69-1.54c-8.85-5.92-1.27-42.59-3.85-55.4,1.46-2.13,2-5.23,4.62-6.16C279,336.44,285.66,337.35,288.29,338.22Z" style="fill:#fff;fill-rule:evenodd"/><path d="M311.37,363.61c4.53.14,8,4.8,10,8.46A40.87,40.87,0,0,1,326,396.7c-2.4,19.89-21.12,34.6-39.24,36.17a47.65,47.65,0,0,1-6.93,0,42.79,42.79,0,0,1-39.24-47.71c1-10.05,5.11-15.58,10.77-22.31a11.47,11.47,0,0,1,10.77,1.54c1.6,1.14,3.53,3.19,3.85,4.62,1.25,5.7-3.85,9.66-5.39,16.16-3.36,14.21,6.82,28.87,21.55,29.24,10.68.27,24-9.06,23.85-23.85-.07-6.27-3.09-9-4.62-13.85C299.31,370.17,301.54,364,311.37,363.61Z" style="fill:#fff;fill-rule:evenodd"/></svg>