<svg xmlns="http://www.w3.org/2000/svg" viewBox="0 0 566.93 566.93"><title>icob-btn-06</title><path d="M150.06,56.69H417.31c7.61,2.26,12.5,3.29,18.12,6.79a48.67,48.67,0,0,1,14.34,14.34c.41.67,1.2,1,1.51,1.51,7.77,13.14,6,31.8,6,53.6v299c0,19.66,1.42,40.09-4.53,52.09a59.06,59.06,0,0,1-4.53,6.79c-4.32,6-11.6,12.21-18.12,15.1-11.37,5-27.92,3.78-44.54,3.78H208.19c-22.67,0-52.56,2.52-67.95-3-12-4.31-24.5-15.7-28.69-30.2C108,464,110,445.58,110,429.64V137.47c0-15.44-2-35.44,1.51-47.56.62-2.16,2.06-4,3-6,6.15-13.23,16.95-22.93,34-26.42C149.14,57.33,150,57.39,150.06,56.69Zm2.26,19.63c-7.74.61-16.84,6.82-20.38,14.34-4.54,9.64-3,30.74-3,46.05V432.66c0,17-1.58,35.55,4.53,45.3a31.74,31.74,0,0,0,6.79,7.55c6.71,4.77,17.1,5.28,31,5.28H388.62c13.81,0,25.81.71,34-3,10.15-4.64,15.09-12.86,15.85-26.42.45-7.91,0-16.79,0-25.67V182c0-23.16,1.09-53.8,0-76.25-.42-8.6-2.4-14.49-6-19.63a32.18,32.18,0,0,0-2.26-3c-1.16-1.12-3.59-2-5.29-3a26.5,26.5,0,0,0-6-3C414,75.64,409,75.63,403,75.57c-72.45-.76-143,0-212.9,0-11.18,0-27.28-.54-36.24.75C153.34,76.39,152.82,76.28,152.32,76.32Z" style="fill:#fff;fill-rule:evenodd"/><path d="M295.76,385.1c34.75.41,72.25-.54,108,0,4.28.07,9.43-1,12.83,2.27,3.51,4.95,2.26,12.22,2.26,19.63v43.79c0,4.56.67,10.83-.75,15.1-2.08,6.25-7,6-16.61,6-79.64.43-158.63.83-237.81,0-5-.05-10.47,1-14.34-2.27-3.58-4.48-2.27-11.26-2.27-17.36V357.16c0-8.23-2-21.67,1.51-27.18a8.23,8.23,0,0,1,5.28-3.77c9.32-1.68,13.29,7.71,18.12,12.83a135.73,135.73,0,0,0,13.59,12.08c1.28,1,3,1.6,4.53,3,.33.31.41,1.25.76,1.51.68.52,1.67.2,2.26.75,1.44,1.34,4.52,3.23,6.79,5.28,2.46.81,3.21-1.8,4.53-3,3.27-3,7-6.87,12.08-9.06-23.77-15.24-41.53-31.9-54.36-57.38a138.57,138.57,0,0,1-14.34-51.34c-3.9-57.15,26.19-100.66,61.15-123.81,1-.68,2.16-1,3-1.51.29-.19.5-1.4.75-1.51s1.14.23,1.51,0c1-.59,1.24-1.69,2.26-2.26s2-.2,3-.75c7.64-4.13,15.11-8,23.4-10.57a133.06,133.06,0,0,1,49.83-6c37.38,2.32,65.75,19.36,86.82,40,1.38,1.35,3.26,2.34,4.53,3.77s1.81,3.08,3,4.53c.69.83,1.55,1.32,2.26,2.27.57.75.91,1.52,1.51,2.26a130.93,130.93,0,0,1,29.44,94.37c-1.16,17.31-6.52,32.59-12.83,46.05-11.94,25.48-28.16,43.33-51.34,58.13-.71.45-1.47,1-2.26,1.51-11.57,7.5-27.46,13.71-44.54,16.61-3.53,2.26-4.13,7.44-7.55,9.81C300.8,378.56,296.77,380.31,295.76,385.1Zm87.57-93.61c1.37-2.36,2.74-4.09,3.78-6a142.2,142.2,0,0,0,6-14.34,100.05,100.05,0,0,0,4.53-15.85c3.13-14.65,4.39-30.85.76-48.32-5.74-27.61-20.81-50.11-40.77-66.44-4.81-3.93-9.64-8.07-15.1-11.32-1.35-.8-3-1.43-4.53-2.26-15.13-8.37-38.17-15-60.4-13.59a122.73,122.73,0,0,0-42.28,10.57,117.52,117.52,0,0,0-30.2,20.38,113.88,113.88,0,0,0-36.24,64.17c-5.13,26.47.19,51,7.55,68.7,1.37,3.31,2.27,6.26,3.77,9.06.65,1.22,2.17,2.34,3,3.77,1.36,2.31,2,4.41,3,6,.28.45,1.18,1,1.51,1.51a116.22,116.22,0,0,0,48.32,40.77c9.21-4.24,18.17-10.68,27.93-16.61,16.09-9.78,32.85-20.26,48.32-29.44,2.27-1.35,5-2.26,7.55-3.77.31-.18.43-1.27.75-1.51.59-.44,1.73-.42,2.26-.75,1.09-.68,1.88-1.58,3-2.27,2.08-1.25,4.9-2.18,7.55-3.77,5-3,10.5-8.13,15.1-7.55,2.93.37,7.19,4.46,7.55,8.31.47,5-4.72,11.19-7.55,15.85-6.66,11-12.91,22.12-18.87,31.71-1.54,2.48-3.32,5.6-4.53,7.55-1,1.61-3.54,3.59-2.26,5.28C349.05,330.64,370.4,313.84,383.34,291.48Zm-108.71,45.3c-1.23.76-2.54.76-3.77,1.51-3.09,1.88-6.47,4.48-9.06,6s-4.24,2.31-6.79,3.77c-5.36,3.07-10.52,6.53-15.85,9.81-11,6.76-25.59,13.1-27.18,27.93a29.88,29.88,0,0,0,1.51,12.83c1.06,2.9,3.56,5.49,6,8.3s4.87,5.51,7.55,6.79c4.6,2.2,10.73,2.46,17.36,2.26,8.71-4.57,16-12.92,21.14-19.63.49-.65.25-1.56.76-2.26.26-.36,1.23-.38,1.51-.75.48-.64.34-1.69.75-2.26.8-1.1,1.47-1.85,2.26-3,3.15-4.63,6.39-9.15,9.06-13.59,1.37-2.27,2.39-5.18,3.77-7.55,5.42-9.26,11-18.6,16.61-27.93s12-18.33,16.61-27.93c.42,0,.86-.61,0-.75C304.88,318.08,287.06,329.09,274.63,336.78ZM166.67,453h234V404H284.44c-2.43,2.31-3.51,5.52-5.28,8.3-7.1,11.1-19.34,21.07-34.73,22.65-13.85,1.42-24.77-2.75-31.71-7.55-1.56-1.08-2.88-3.11-3.77-3.78-.71-.53-1.66-.18-2.27-.75-1.47-1.41-2.74-4.18-3.77-5.28a37.28,37.28,0,0,1-4.53-6c-4.74-8-6.23-18.66-4.53-31.71-3.9-2.74-8.43-6.09-11.32-8.3-.63-.48-1.6-.25-2.26-.75-.9-.69-1.39-2.29-2.26-3-.56-.47-1.73-.35-2.26-.75-2.89-2.21-4.76-5.58-8.3-6.79,0-.46-.11-.89-.75-.75Z" style="fill:#fff;fill-rule:evenodd"/><path d="M279.91,183.52c5.06-.45,15.32.07,21.14,2.26,1.93.73,4.16,2.66,6,3.77,1.17.69,2.14.88,3,1.51a57.16,57.16,0,0,1,7.55,6c6.52,6.72,13.4,18.9,13.59,32.46.38,26.91-21.85,48-46.81,48.32-25.47.36-47.94-20.41-48.32-46.81-.07-4.77,1.3-9.73,2.27-13.59a34.07,34.07,0,0,1,3-8.3c1.57-3.2,3.37-5.19,5.28-8.3a40.1,40.1,0,0,1,6-6.79c.6-.51,1.58-.24,2.27-.76.38-.28.4-1.25.75-1.51.57-.42,1.62-.27,2.26-.75s1.18-1.66,2.27-2.26C265.48,185.92,270.75,184.34,279.91,183.52Zm-3.77,19.63c-10.77,3.08-16.74,10.94-20.38,21.14-1.74,20.36,8.34,28.9,21.89,34,20.28,1.66,28.94-8.3,34-21.89V224.29q-5.32-16.57-21.89-21.89c-3.79.49-9.55-1-12.08.75Z" style="fill:#fff;fill-rule:evenodd"/><circle cx="162.41" cy="110.09" r="15.94" style="fill:#fff"/><circle cx="401" cy="110.09" r="15.94" style="fill:#fff"/></svg>