<svg xmlns="http://www.w3.org/2000/svg" viewBox="0 0 566.93 566.93"><title>icob-btn-02</title><path d="M405.92,93.21c5.81-5,11.31-8.11,19.65-11.34,5.79-2.24,19-4.55,28.73-2.27a58.64,58.64,0,0,1,21.92,9.83,42.68,42.68,0,0,1,9.07,8.31c.44.54,1.14,1,1.51,1.51s.26,1.57.76,2.27c.84,1.19,2.37,1.92,3,3,.75,1.26.73,3,1.51,4.54,4.25,8.42,7,15.4,6,28a67,67,0,0,1-4.54,17.39c-.3.7-.28,2.07-.76,3-.17.33-1.39.48-1.51.76-.62,1.37-.78,3-2.27,4.54-2.31,2.41-4.3,6.85-7.56,9.83A230.88,230.88,0,0,1,510.24,283.7c0,43.8-12.52,82.34-28.72,110.36-1,2.58,3.33,5,5.29,7.56a71.32,71.32,0,0,1,6.8,11.34c6.08,12.37,5.59,33-.76,46.11a63.18,63.18,0,0,1-4.54,7.56c-.82,1.19-2.1,1.84-3,3-1.06,1.35-1.4,2.89-2.27,3.78-1.27,1.31-3.12,1.86-4.54,3-.64.52-.87,1.77-1.51,2.27-6.88,5.36-21.5,11.33-33.26,11.34-14.94,0-27-6.5-37.79-15.12-9.34,5-18.57,11.1-29.48,15.87-.83.36-2.08,1.11-3,1.51-2.3,1-5.13,1.31-7.56,2.27-.38.15-1.23,1.43-1.51,1.51-3.72,1.13-8.34,2.36-12.85,3.78a222.8,222.8,0,0,1-68,10.58c-49.66,0-91.38-15.71-121.7-35.53-2.45-1.61-3.33,2.41-5.29,3.78-.72.5-1.6.28-2.27.76-1.64,1.17-3.69,2.31-6,3.78-1.74,1.08-4.07,1.79-7.56,3S129.76,490,124,490.06a60.62,60.62,0,0,1-8.32-.76c-6.61-.94-11.74-3.16-17.39-6-1.51-.77-3.35-.8-4.54-1.51s-1.72-2.05-3-3-2.74-1.32-3.78-2.27a72.32,72.32,0,0,1-8.32-9.07c-6.41-8.88-11.58-22.14-9.83-39.31,1.49-14.52,8.54-23.37,17.39-33.26a135.84,135.84,0,0,1-12.09-23.43,230.5,230.5,0,0,1-17.39-86.93A226.51,226.51,0,0,1,65,223.22c5.12-18.5,11.62-35.72,20.41-49.13-.54-4-4.54-6.12-6.8-9.07-4.07-5.32-8.9-15.9-9.83-24.19-2.35-21,4.66-34.73,15.87-46.11,2.14-2.18,3.75-4.39,6-6,5.58-4,15.85-8.89,24.19-9.83,18.93-2.12,34.55,4.51,45.35,14.36,27.38-17.43,65-33.52,108.09-36.28A223.87,223.87,0,0,1,405.92,93.21ZM357.54,81.87c-.66-.25-1.59.21-2.27,0-.28-.09-1.12-1.37-1.51-1.51-2.94-1.06-6.22-1.41-9.07-2.27a217.32,217.32,0,0,0-31.75-6.8A213.7,213.7,0,0,0,181.42,94.72c-3.29,1.79-6.09,3.92-8.31,5.29-1.26.78-2.57.75-3.78,1.51-.81.51-1.53,1.79-2.27,2.27-1.12.72-2.1.9-3,1.51-1.92,1.27-3.76,3.1-6,3.78-8.55-11.81-22.8-20.52-41.58-18.14-4.54.58-13.65,3.92-15.87,6-.63.61-1.62.9-2.27,1.51-4.13,4-8.28,7.71-11.34,12.85-4.84,8.15-7.47,16.47-6,28,.64,5.19,4.53,15,6.8,17.39s4.4,5.38,6.8,7.56c1,.87,1.83,2.07,3,3,1,.82,4,.76,3.78,3C83,198.75,68.79,238.59,68.79,284.45,68.79,330.91,84.14,370,102,398.6c-13.63,8.15-23.74,22.7-21.17,43.09a59.61,59.61,0,0,0,2.27,9.07c.43,1.13,1.63,1.74,2.27,3,2,4,2.22,4.83,4.54,7.56a64.71,64.71,0,0,0,6,6.8c.63.55,1.54.25,2.27.76s.86,1.84,1.51,2.27c1.56,1,4.22,1.46,6,2.27,4.37,1.94,6.67,3.28,11.34,3.78a44.29,44.29,0,0,0,26.46-5.29,38.77,38.77,0,0,0,5.29-3.78,46.39,46.39,0,0,0,9.83-9.83c32.59,22,69.71,40.06,124.72,40.06,40,0,72.1-9.93,99-24.19,4.71-2.49,14.2-7.71,19.65-11.34,6.16-4.1,4.61-6,8.32-1.51a47.53,47.53,0,0,0,11.34,9.83,44.92,44.92,0,0,0,28.72,6c8-1.07,17-5.84,22.68-11.34,6.14-6,10.43-14.84,12.09-22.68a45.11,45.11,0,0,0-1.51-22.68c-.51-1.42-2.21-3-3-4.54-1-1.89-1.3-3.88-2.27-5.29-.83-1.21-2-1.82-3-3-3.58-4.11-6.5-5.94-10.58-9.83,18.41-27.93,33.26-67.65,33.26-113.39a225,225,0,0,0-5.29-49.13c-1.1-4.82-3.08-9.66-4.54-14.36-.78-2.53-.64-5.05-1.51-7.56-.4-1.16-1-1.68-1.51-3-2.13-5.63-4.34-11.23-6.8-16.63-3.9-8.56-8.88-16.45-12.85-24.19,4-3.68,7.64-5.73,10.58-9.07.55-.63.25-1.54.76-2.27s1.84-.86,2.27-1.51c.67-1,1.55-3.09,2.27-4.54a53.59,53.59,0,0,0,2.27-5.29c10.84-31.45-16.59-60-46.87-55.94-5.65.75-13.64,4.56-16.63,6.8a67.08,67.08,0,0,0-6,4.54c-2.15,2.08-3.26,5.47-6.8,6.8C393.78,98.21,374.47,88.32,357.54,81.87Z" style="fill:#fff;fill-rule:evenodd"/><path d="M271.37,84.89c-.08,0,.28-.73.76-.76,32-1.88,61.23,4.67,85.42,14.36,5.81,2.33,12.11,4.79,17.39,7.56,2.25,1.18,3.85,2.51,6,3.78,2,1.15,5.08,3,7.56,4.54,10,6.22,21.51,14.29,30.24,22.68,7.32,7,14.84,14.51,21.16,22.68A204.58,204.58,0,0,1,480,250.44a210.68,210.68,0,0,1,2.27,21.92c3.1,48.21-11.21,87.49-30.24,117.92A198.57,198.57,0,0,1,337.89,475.7c-25.08,7.11-58.74,9.81-88.44,4.54a208.59,208.59,0,0,1-34.77-9.07c-3.33-1.21-5.54-2.31-9.07-3.78-6-2.49-12.77-5.26-18.9-9.07-.93-.58-2.25-1.38-3.78-2.27-3.11-1.8-7.61-5.24-11.34-7.56-.57-.35-1.62-.3-2.27-.76-1.06-.73-2-2.27-3-3-5.35-4-12.19-8.8-17.39-13.61a205.56,205.56,0,0,1-43.09-56.69c-11.52-22.31-18.92-47.29-21.17-77.86a190.19,190.19,0,0,1,12.85-85.42,185.26,185.26,0,0,1,7.56-17.39c1-1.94,2.57-4,3.78-6,1.51-2.6,3.4-6.86,5.29-9.83A211.65,211.65,0,0,1,130,155.95c10.75-12.9,24.73-25.26,39.31-35.53.48-.33,1.06-1.23,1.51-1.51s1.6-.3,2.27-.76c.88-.6,1.91-2.3,3-3,1.3-.84,3-1.34,4.54-2.27A213.94,213.94,0,0,1,223,93.21a227.57,227.57,0,0,1,24.94-6C255.73,85.73,263.62,85.43,271.37,84.89Zm-18.9,14.36a180.23,180.23,0,0,0-68,25.7c-3.82,2.38-7.43,4.62-10.58,6.8-2.45,1.7-4.3,3.83-6,5.29-.57.47-1.73.35-2.27.76-3.36,2.57-6.33,6.63-9.07,8.31-4.44,2.73-7.4,7-10.58,10.58C117.73,188,92.66,234.06,96.76,293.52c1,14.91,2.58,27.84,6,40.06,8.69,30.64,23.73,55.13,41.57,75.59,3.94,4.51,8.87,10.21,12.85,12.85.78.52.88.94,1.51,1.51,2.34,2.14,4.57,3.56,6.8,5.29,3.37,2.6,6.51,5.2,9.83,7.56.48.34,1,1.18,1.51,1.51s1.54.26,2.27.76c1.18.8,1.9,2.29,3,3s2.55.79,3.78,1.51c.44.26,1,1.21,1.51,1.51,3.42,2.13,6.6,3.6,9.83,5.29,30.06,15.76,73.39,25.61,116.41,18.9,6.52-1,12.73-2.88,18.9-4.54,36.56-9.81,65.37-28.61,87.69-52.91,13.87-15.1,26.8-33.08,34.77-52.91,1.93-4.79,3.77-7.87,5.29-12.09,1.6-4.44,2.62-9.27,3.78-13.61a197,197,0,0,0,6-35.53c4.65-57.7-17.28-101.43-41.57-131.53-1.83-2.27-3.44-4.69-5.29-6.8-.77-.88-2.27-1.37-3-2.27-.47-.57-.35-1.73-.76-2.27s-1.11-1.08-1.51-1.51a98,98,0,0,0-9.07-8.31c-2.39-2-4.74-3.62-6.8-5.29-1.21-1-2-2.21-3-3-4.24-3.29-9-6.81-13.61-9.83-14.18-9.3-31.05-16.6-48.38-21.92-2.78-.86-5.37-2.31-8.32-3-3.27-.8-6.9-.83-10.58-1.51-13.44-2.48-27.77-4.59-43.09-3.78-.48,0-.84.76-.76.76A212.44,212.44,0,0,0,252.47,99.26Z" style="fill:#fff;fill-rule:evenodd"/><path d="M101.29,133.27c-.33-6.51,0-10.4,2.27-14.36.45-.77,1.05-.91,1.51-1.51,1.32-1.72,1.43-2.75,4.54-4.54,2.18-1.26,4.8-2.85,8.32-3,8-.39,17.67,6.15,18.9,15.12a23.9,23.9,0,0,1-.76,9.83c-1.53,4.41-9.27,11.7-18.14,11.34C108.85,145.76,105.28,140.14,101.29,133.27Z" style="fill:#fff;fill-rule:evenodd"/><path d="M446.74,110.6c4.37-.53,8.34-.13,11.34,1.51.66.36.91,1.85,1.51,2.27s1.7.16,2.27.76a46.56,46.56,0,0,1,4.54,7.56c2.77,10.26-4.21,22.55-15.87,23.43-13.63,1-23.29-12.86-18.14-24.94,1.21-2.85,2.84-6.1,6-8.31.9-.62,2-.24,3-.76C443,111.33,443.34,111,446.74,110.6Z" style="fill:#fff;fill-rule:evenodd"/><path d="M328.82,313.93c-.92,1.91,1.44,3.18,2.27,4.54,11,18,21,38.74,31.75,59,3.89,7.3,9.55,15.08,10.58,21.92a31,31,0,0,1-.76,12.09c-4.59,16.74-33.4,23.64-54.42,24.95-18.88,1.17-39.55-1.18-56.69-5.29-17.34-4.16-32.58-10.22-39.31-22.68-.81-18,5.65-31.43,11.34-43.84s12.53-24,19.65-35.53c-2-.86-3.2,1.45-4.54,2.27-18.12,11.1-38.71,21-59,31.75-3.11,1.66-7,4.24-10.58,6-6.19,3.08-14.27,6.29-23.43,3.78-16.6-4.55-23.62-33.13-24.94-54.43a207.94,207.94,0,0,1,0-24.19,180.48,180.48,0,0,1,6-35.53c.42-1.56.3-3.83.75-5.29.91-2.95,2.68-5.62,3.78-8.31,1.28-3.15,1.76-6.14,3-8.31.18-.31,1.39-.49,1.51-.76s-.23-1.16,0-1.51,1.4-.51,1.51-.76c1.74-3.87,7.41-10.26,12.09-11.34,8-1.86,17.2,1.41,24.19,3.78,3.56,1.21,6.62,2.45,9.83,3.78,3.36,1.39,6.3,3.27,9.07,4.54,3.36,1.53,6.92,2.28,9.83,3.78.33.17.48,1.39.76,1.51,7.91,3.56,17.23,8.13,24.94,13.61.92-1.91-1.44-3.18-2.27-4.54-4.83-7.89-10.32-17.4-15.12-26.46-1.87-3.53-3.28-7.6-5.29-11.34-.44-.82-1.76-1.28-2.27-2.27-2.89-5.63-5.71-13.39-9.07-19.65-.5-.93-1.85-1.46-2.27-2.27-1.23-2.4-2.39-5.44-3.78-8.32-2.94-6.08-6.32-13.52-3.78-22.68,4.67-16.83,33.44-23.64,54.43-24.95,16.78-1,35.6,1.19,49.89,3.78,10.24,1.85,20.65,4.41,29.48,9.07,6.12,3.23,14.12,9,15.87,14.36,2.31,7-.26,16.81-3,24.94-6.28,18.51-17.8,40-26.46,54.43-.14.61-.76.75-.75,1.51,1.76-1,3.57-1.93,5.29-3,.85-.54,1.39-1.77,2.27-2.27s2-.17,3-.76,1.33-1.79,2.27-2.27,2-.18,3-.76,1.19-1.71,2.27-2.27,2-.19,3-.76,1.37-1.81,2.27-2.27,2-.19,3-.76,1.24-1.69,2.27-2.27c3.78-2.14,9.18-3.67,13.61-6,.93-.5,1.46-1.85,2.27-2.27,5.57-2.86,12.75-5.8,18.9-9.07,3.41-1.82,6.92-4.23,10.58-6,6.47-3.22,15-6.35,23.43-3.78,16.87,5.13,23.61,33,24.94,54.42,1.77,28.44-2.86,60.43-13.61,80.13a44.42,44.42,0,0,1-4.54,7.56c-.19.22-1.42.55-1.51.76-.92,2-2.07,2.85-4.54,4.54-.27.19-.51,1.4-.76,1.51-10.86,4.89-28.15-2.05-37.8-6-3.36-1.39-6.33-3.29-9.07-4.54-3.35-1.52-6.9-2.27-9.83-3.78-.33-.17-.48-1.39-.76-1.51C345.93,324,336.47,319.39,328.82,313.93Zm-62-46.87c-2.89,2.89-4,5.27-5.29,9.07a23.36,23.36,0,1,0,45.35,9.07c.46-8.34-4-17.7-11.34-21.92-4.49-2.59-12-2.89-15.87-2.27C273.52,262,270,263.87,266.83,267.07Z" style="fill:#fff;fill-rule:evenodd"/><path d="M281.2,272.36a12.61,12.61,0,0,1,9.07,1.51c8.06,5.18,5.57,21.92-6.8,21.92-1.11,0-4.95-.76-6-1.51-.27-.19-.52-1.4-.76-1.51-2-.89-2.41-1.51-3.78-4.54-1.6-3.54-1.73-5.28,0-9.07C274.51,275.58,276.08,273.35,281.2,272.36Z" style="fill:#fff;fill-rule:evenodd"/><path d="M101.29,434.12c2.69-4.73,7.4-13.14,15.87-12.85,6.57.22,11.57,2.23,15.12,6a22.44,22.44,0,0,1,3.78,5.29c4.05,11.71-4.92,24.69-16.63,24.94a26.38,26.38,0,0,1-8.31-1.51c-.51-.22-1.22-1.56-2.27-2.27-2.71-1.82-6.6-5.09-7.56-9.83C100.72,441.13,101.71,437.53,101.29,434.12Z" style="fill:#fff;fill-rule:evenodd"/><path d="M446,422c.23,0,.79-.71,1.51-.76,7.33-.48,13.32,3.75,16.63,9.07,3,4.75,3.3,12.41,0,18.14-1.81,3.15-2.09,3-5.29,5.29-1,.7-1.46,1.91-2.27,2.27a24.15,24.15,0,0,1-6.8,1.51c-2.77.1-6.65-1.15-9.07-2.27-3.62-1.67-9.17-7.94-9.83-12.85-1.34-10,4.51-14.53,9.07-18.9C440.78,422.73,443.55,422.42,446,422Z" style="fill:#fff;fill-rule:evenodd"/></svg>